<?xml version="1.0" encoding="UTF-8" standalone="no"?>
<!DOCTYPE svg PUBLIC "-//W3C//DTD SVG 1.1//EN"
 "http://www.w3.org/Graphics/SVG/1.1/DTD/svg11.dtd">
<!-- Generated by graphviz version 2.43.0 (0)
 -->
<!-- Title: pirogue&#45;base Pages: 1 -->
<svg width="998pt" height="3103pt"
 viewBox="0.00 0.00 998.29 3103.00" xmlns="http://www.w3.org/2000/svg" xmlns:xlink="http://www.w3.org/1999/xlink">
<g id="graph0" class="graph" transform="scale(1 1) rotate(0) translate(4 3099)">
<title>pirogue&#45;base</title>
<polygon fill="white" stroke="transparent" points="-4,4 -4,-3099 994.29,-3099 994.29,4 -4,4"/>
<!-- pirogue&#45;base -->
<g id="node1" class="node">
<title>pirogue&#45;base</title>
<polygon fill="none" stroke="#912cee" stroke-width="2" points="107,-820 0,-820 0,-784 107,-784 107,-820"/>
<text text-anchor="middle" x="53.5" y="-798.3" font-family="courrier" font-size="14.00">pirogue&#45;base</text>
</g>
<!-- python3&#45;pip -->
<g id="node2" class="node">
<title>python3&#45;pip</title>
<polygon fill="thistle" stroke="#912cee" points="315.5,-2960 214.5,-2960 214.5,-2924 315.5,-2924 315.5,-2960"/>
<text text-anchor="middle" x="265" y="-2938.3" font-family="courrier" font-size="14.00">python3&#45;pip</text>
</g>
<!-- pirogue&#45;base&#45;&gt;python3&#45;pip -->
<g id="edge1" class="edge">
<title>pirogue&#45;base&#45;&gt;python3&#45;pip</title>
<path fill="none" stroke="#912cee" d="M54.24,-820.37C52.58,-953.29 46.66,-1781.5 144,-2445 170.64,-2626.6 232.53,-2839.08 255.35,-2914.08"/>
<polygon fill="#912cee" stroke="#912cee" points="252.03,-2915.2 258.3,-2923.73 258.73,-2913.15 252.03,-2915.2"/>
</g>
<!-- python3&#45;systemd -->
<g id="node8" class="node">
<title>python3&#45;systemd</title>
<polygon fill="thistle" stroke="#912cee" points="706.65,-306 567.65,-306 567.65,-270 706.65,-270 706.65,-306"/>
<text text-anchor="middle" x="637.15" y="-284.3" font-family="courrier" font-size="14.00">python3&#45;systemd</text>
</g>
<!-- pirogue&#45;base&#45;&gt;python3&#45;systemd -->
<g id="edge7" class="edge">
<title>pirogue&#45;base&#45;&gt;python3&#45;systemd</title>
<path fill="none" stroke="#912cee" d="M54.56,-783.98C55.28,-698.65 63.1,-336.47 144,-268 204.31,-216.95 434.02,-250.03 557.12,-272.38"/>
<polygon fill="#912cee" stroke="#912cee" points="556.78,-275.87 567.24,-274.23 558.04,-268.99 556.78,-275.87"/>
</g>
<!-- pirogue&#45;cli -->
<g id="node11" class="node">
<title>pirogue&#45;cli</title>
<polygon fill="thistle" stroke="#912cee" points="309.5,-2436 220.5,-2436 220.5,-2400 309.5,-2400 309.5,-2436"/>
<text text-anchor="middle" x="265" y="-2414.3" font-family="courrier" font-size="14.00">pirogue&#45;cli</text>
</g>
<!-- pirogue&#45;base&#45;&gt;pirogue&#45;cli -->
<g id="edge12" class="edge">
<title>pirogue&#45;base&#45;&gt;pirogue&#45;cli</title>
<path fill="none" stroke="#912cee" d="M55.26,-820.19C59.67,-921.85 83.94,-1429.71 144,-1840 175.25,-2053.46 236.24,-2306.67 256.94,-2389.94"/>
<polygon fill="#912cee" stroke="#912cee" points="253.55,-2390.82 259.36,-2399.68 260.34,-2389.13 253.55,-2390.82"/>
</g>
<!-- pirogue&#45;tools -->
<g id="node26" class="node">
<title>pirogue&#45;tools</title>
<polygon fill="thistle" stroke="#912cee" points="318.5,-1831 211.5,-1831 211.5,-1795 318.5,-1795 318.5,-1831"/>
<text text-anchor="middle" x="265" y="-1809.3" font-family="courrier" font-size="14.00">pirogue&#45;tools</text>
</g>
<!-- pirogue&#45;base&#45;&gt;pirogue&#45;tools -->
<g id="edge28" class="edge">
<title>pirogue&#45;base&#45;&gt;pirogue&#45;tools</title>
<path fill="none" stroke="#912cee" d="M58.32,-820.41C83.61,-942.47 227.05,-1634.7 258.08,-1784.44"/>
<polygon fill="#912cee" stroke="#912cee" points="254.74,-1785.56 260.2,-1794.64 261.59,-1784.14 254.74,-1785.56"/>
</g>
<!-- pirogue&#45;ap -->
<g id="node39" class="node">
<title>pirogue&#45;ap</title>
<polygon fill="thistle" stroke="#912cee" points="311,-1183 219,-1183 219,-1147 311,-1147 311,-1183"/>
<text text-anchor="middle" x="265" y="-1161.3" font-family="courrier" font-size="14.00">pirogue&#45;ap</text>
</g>
<!-- pirogue&#45;base&#45;&gt;pirogue&#45;ap -->
<g id="edge44" class="edge">
<title>pirogue&#45;base&#45;&gt;pirogue&#45;ap</title>
<path fill="none" stroke="#912cee" d="M64.89,-820C99.02,-879.15 207.86,-1067.73 248.5,-1138.14"/>
<polygon fill="#912cee" stroke="#912cee" points="245.52,-1139.98 253.55,-1146.89 251.58,-1136.48 245.52,-1139.98"/>
</g>
<!-- pirogue&#45;hat -->
<g id="node47" class="node">
<title>pirogue&#45;hat</title>
<polygon fill="thistle" stroke="#912cee" points="313.5,-926 216.5,-926 216.5,-890 313.5,-890 313.5,-926"/>
<text text-anchor="middle" x="265" y="-904.3" font-family="courrier" font-size="14.00">pirogue&#45;hat</text>
</g>
<!-- pirogue&#45;base&#45;&gt;pirogue&#45;hat -->
<g id="edge52" class="edge">
<title>pirogue&#45;base&#45;&gt;pirogue&#45;hat</title>
<path fill="none" stroke="#912cee" d="M90.51,-820.22C126,-838.18 180.32,-865.66 218.71,-885.08"/>
<polygon fill="#912cee" stroke="#912cee" points="217.6,-888.45 228.11,-889.84 220.76,-882.2 217.6,-888.45"/>
</g>
<!-- pirogue&#45;dashboard -->
<g id="node51" class="node">
<title>pirogue&#45;dashboard</title>
<polygon fill="thistle" stroke="#912cee" points="339,-820 191,-820 191,-784 339,-784 339,-820"/>
<text text-anchor="middle" x="265" y="-798.3" font-family="courrier" font-size="14.00">pirogue&#45;dashboard</text>
</g>
<!-- pirogue&#45;base&#45;&gt;pirogue&#45;dashboard -->
<g id="edge56" class="edge">
<title>pirogue&#45;base&#45;&gt;pirogue&#45;dashboard</title>
<path fill="none" stroke="#912cee" d="M107.1,-802C129.36,-802 155.85,-802 180.66,-802"/>
<polygon fill="#912cee" stroke="#912cee" points="180.8,-805.5 190.8,-802 180.8,-798.5 180.8,-805.5"/>
</g>
<!-- pirogue&#45;eve&#45;collector -->
<g id="node54" class="node">
<title>pirogue&#45;eve&#45;collector</title>
<polygon fill="thistle" stroke="#912cee" points="346.5,-580 183.5,-580 183.5,-544 346.5,-544 346.5,-580"/>
<text text-anchor="middle" x="265" y="-558.3" font-family="courrier" font-size="14.00">pirogue&#45;eve&#45;collector</text>
</g>
<!-- pirogue&#45;base&#45;&gt;pirogue&#45;eve&#45;collector -->
<g id="edge59" class="edge">
<title>pirogue&#45;base&#45;&gt;pirogue&#45;eve&#45;collector</title>
<path fill="none" stroke="#912cee" d="M59.1,-783.89C68.99,-748.25 95.41,-668.26 144,-620 159.24,-604.87 179.2,-593.08 198.46,-584.21"/>
<polygon fill="#912cee" stroke="#912cee" points="200.09,-587.31 207.83,-580.08 197.27,-580.91 200.09,-587.31"/>
</g>
<!-- pirogue&#45;flow&#45;inspector -->
<g id="node58" class="node">
<title>pirogue&#45;flow&#45;inspector</title>
<polygon fill="thistle" stroke="#912cee" points="351.5,-742 178.5,-742 178.5,-706 351.5,-706 351.5,-742"/>
<text text-anchor="middle" x="265" y="-720.3" font-family="courrier" font-size="14.00">pirogue&#45;flow&#45;inspector</text>
</g>
<!-- pirogue&#45;base&#45;&gt;pirogue&#45;flow&#45;inspector -->
<g id="edge66" class="edge">
<title>pirogue&#45;base&#45;&gt;pirogue&#45;flow&#45;inspector</title>
<path fill="none" stroke="#912cee" d="M103.09,-783.91C133.65,-772.53 173.27,-757.78 205.55,-745.76"/>
<polygon fill="#912cee" stroke="#912cee" points="207.16,-748.9 215.31,-742.13 204.72,-742.34 207.16,-748.9"/>
</g>
<!-- pirogue&#45;maintenance -->
<g id="node62" class="node">
<title>pirogue&#45;maintenance</title>
<polygon fill="thistle" stroke="#912cee" points="347,-665 183,-665 183,-629 347,-629 347,-665"/>
<text text-anchor="middle" x="265" y="-643.3" font-family="courrier" font-size="14.00">pirogue&#45;maintenance</text>
</g>
<!-- pirogue&#45;base&#45;&gt;pirogue&#45;maintenance -->
<g id="edge76" class="edge">
<title>pirogue&#45;base&#45;&gt;pirogue&#45;maintenance</title>
<path fill="none" stroke="#912cee" d="M66.06,-783.74C81.41,-760.78 110.51,-721.41 144,-697 159.54,-685.67 178.04,-676.34 195.79,-668.94"/>
<polygon fill="#912cee" stroke="#912cee" points="197.58,-672 205.56,-665.03 194.97,-665.5 197.58,-672"/>
</g>
<!-- pirogue&#45;screen&#45;st7789&#45;240x240 -->
<g id="node63" class="node">
<title>pirogue&#45;screen&#45;st7789&#45;240x240</title>
<polygon fill="thistle" stroke="#912cee" points="386,-313 144,-313 144,-277 386,-277 386,-313"/>
<text text-anchor="middle" x="265" y="-291.3" font-family="courrier" font-size="14.00">pirogue&#45;screen&#45;st7789&#45;240x240</text>
</g>
<!-- pirogue&#45;base&#45;&gt;pirogue&#45;screen&#45;st7789&#45;240x240 -->
<g id="edge78" class="edge">
<title>pirogue&#45;base&#45;&gt;pirogue&#45;screen&#45;st7789&#45;240x240</title>
<path fill="none" stroke="#912cee" d="M59.62,-783.87C72.13,-740.28 106.04,-626.43 144,-535 176.95,-455.64 224.72,-366.03 248.85,-322.16"/>
<polygon fill="#912cee" stroke="#912cee" points="251.99,-323.7 253.76,-313.26 245.86,-320.32 251.99,-323.7"/>
</g>
<!-- ca&#45;certificates -->
<g id="node3" class="node">
<title>ca&#45;certificates</title>
<polygon fill="thistle" stroke="#912cee" points="694.15,-3095 580.15,-3095 580.15,-3091 576.15,-3091 576.15,-3087 580.15,-3087 580.15,-3067 576.15,-3067 576.15,-3063 580.15,-3063 580.15,-3059 694.15,-3059 694.15,-3095"/>
<polyline fill="none" stroke="#912cee" points="580.15,-3091 584.15,-3091 584.15,-3087 580.15,-3087 "/>
<polyline fill="none" stroke="#912cee" points="580.15,-3067 584.15,-3067 584.15,-3063 580.15,-3063 "/>
<text text-anchor="middle" x="637.15" y="-3073.3" font-family="courrier" font-size="14.00">ca&#45;certificates</text>
</g>
<!-- python3&#45;pip&#45;&gt;ca&#45;certificates -->
<g id="edge2" class="edge">
<title>python3&#45;pip&#45;&gt;ca&#45;certificates</title>
<path fill="none" stroke="#912cee" d="M300.19,-2960.16C346.08,-2983.86 430.68,-3025.24 507,-3050 527.13,-3056.53 549.55,-3061.86 569.98,-3066.01"/>
<polygon fill="#912cee" stroke="#912cee" points="569.35,-3069.46 579.84,-3067.95 570.7,-3062.59 569.35,-3069.46"/>
</g>
<!-- python3&#45;distutils -->
<g id="node4" class="node">
<title>python3&#45;distutils</title>
<polygon fill="thistle" stroke="#912cee" points="704.15,-3041 570.15,-3041 570.15,-3037 566.15,-3037 566.15,-3033 570.15,-3033 570.15,-3013 566.15,-3013 566.15,-3009 570.15,-3009 570.15,-3005 704.15,-3005 704.15,-3041"/>
<polyline fill="none" stroke="#912cee" points="570.15,-3037 574.15,-3037 574.15,-3033 570.15,-3033 "/>
<polyline fill="none" stroke="#912cee" points="570.15,-3013 574.15,-3013 574.15,-3009 570.15,-3009 "/>
<text text-anchor="middle" x="637.15" y="-3019.3" font-family="courrier" font-size="14.00">python3&#45;distutils</text>
</g>
<!-- python3&#45;pip&#45;&gt;python3&#45;distutils -->
<g id="edge3" class="edge">
<title>python3&#45;pip&#45;&gt;python3&#45;distutils</title>
<path fill="none" stroke="#912cee" d="M315.8,-2953.38C364.5,-2964.45 440.79,-2981.66 507,-2996 524.12,-2999.71 542.54,-3003.61 559.96,-3007.26"/>
<polygon fill="#912cee" stroke="#912cee" points="559.57,-3010.76 570.08,-3009.38 561,-3003.9 559.57,-3010.76"/>
</g>
<!-- python3&#45;setuptools -->
<g id="node5" class="node">
<title>python3&#45;setuptools</title>
<polygon fill="thistle" stroke="#912cee" points="713.15,-2987 561.15,-2987 561.15,-2983 557.15,-2983 557.15,-2979 561.15,-2979 561.15,-2959 557.15,-2959 557.15,-2955 561.15,-2955 561.15,-2951 713.15,-2951 713.15,-2987"/>
<polyline fill="none" stroke="#912cee" points="561.15,-2983 565.15,-2983 565.15,-2979 561.15,-2979 "/>
<polyline fill="none" stroke="#912cee" points="561.15,-2959 565.15,-2959 565.15,-2955 561.15,-2955 "/>
<text text-anchor="middle" x="637.15" y="-2965.3" font-family="courrier" font-size="14.00">python3&#45;setuptools</text>
</g>
<!-- python3&#45;pip&#45;&gt;python3&#45;setuptools -->
<g id="edge4" class="edge">
<title>python3&#45;pip&#45;&gt;python3&#45;setuptools</title>
<path fill="none" stroke="#912cee" d="M315.54,-2945.61C375.65,-2950 477.99,-2957.46 550.87,-2962.78"/>
<polygon fill="#912cee" stroke="#912cee" points="550.73,-2966.28 560.95,-2963.52 551.23,-2959.3 550.73,-2966.28"/>
</g>
<!-- python3&#45;wheel -->
<g id="node6" class="node">
<title>python3&#45;wheel</title>
<polygon fill="thistle" stroke="#912cee" points="697.15,-2933 577.15,-2933 577.15,-2929 573.15,-2929 573.15,-2925 577.15,-2925 577.15,-2905 573.15,-2905 573.15,-2901 577.15,-2901 577.15,-2897 697.15,-2897 697.15,-2933"/>
<polyline fill="none" stroke="#912cee" points="577.15,-2929 581.15,-2929 581.15,-2925 577.15,-2925 "/>
<polyline fill="none" stroke="#912cee" points="577.15,-2905 581.15,-2905 581.15,-2901 577.15,-2901 "/>
<text text-anchor="middle" x="637.15" y="-2911.3" font-family="courrier" font-size="14.00">python3&#45;wheel</text>
</g>
<!-- python3&#45;pip&#45;&gt;python3&#45;wheel -->
<g id="edge5" class="edge">
<title>python3&#45;pip&#45;&gt;python3&#45;wheel</title>
<path fill="none" stroke="#912cee" d="M315.54,-2938.39C380.26,-2933.67 493.93,-2925.37 567.09,-2920.04"/>
<polygon fill="#912cee" stroke="#912cee" points="567.41,-2923.52 577.13,-2919.3 566.9,-2916.54 567.41,-2923.52"/>
</g>
<!-- python3:any -->
<g id="node7" class="node">
<title>python3:any</title>
<polygon fill="thistle" stroke="#912cee" points="990.29,-632 886.29,-632 886.29,-628 882.29,-628 882.29,-624 886.29,-624 886.29,-604 882.29,-604 882.29,-600 886.29,-600 886.29,-596 990.29,-596 990.29,-632"/>
<polyline fill="none" stroke="#912cee" points="886.29,-628 890.29,-628 890.29,-624 886.29,-624 "/>
<polyline fill="none" stroke="#912cee" points="886.29,-604 890.29,-604 890.29,-600 886.29,-600 "/>
<text text-anchor="middle" x="938.29" y="-610.3" font-family="courrier" font-size="14.00">python3:any</text>
</g>
<!-- python3&#45;pip&#45;&gt;python3:any -->
<g id="edge6" class="edge">
<title>python3&#45;pip&#45;&gt;python3:any</title>
<path fill="none" stroke="#912cee" d="M315.62,-2929.73C364.19,-2917.99 440.38,-2900.31 507,-2888 564.48,-2877.38 726.25,-2891.63 767.29,-2850 930.07,-2684.9 937.11,-890.97 937.3,-642.49"/>
<polygon fill="#912cee" stroke="#912cee" points="940.8,-642.14 937.31,-632.14 933.8,-642.14 940.8,-642.14"/>
</g>
<!-- python3&#45;systemd&#45;&gt;python3:any -->
<g id="edge10" class="edge">
<title>python3&#45;systemd&#45;&gt;python3:any</title>
<path fill="none" stroke="#912cee" d="M706.66,-292.37C765.86,-297.56 845.4,-308.4 868.29,-330 905.44,-365.06 926.84,-520.66 934.28,-585.49"/>
<polygon fill="#912cee" stroke="#912cee" points="930.84,-586.24 935.43,-595.79 937.8,-585.47 930.84,-586.24"/>
</g>
<!-- python3 -->
<g id="node9" class="node">
<title>python3</title>
<polygon fill="thistle" stroke="#912cee" points="975.29,-293 901.29,-293 901.29,-289 897.29,-289 897.29,-285 901.29,-285 901.29,-265 897.29,-265 897.29,-261 901.29,-261 901.29,-257 975.29,-257 975.29,-293"/>
<polyline fill="none" stroke="#912cee" points="901.29,-289 905.29,-289 905.29,-285 901.29,-285 "/>
<polyline fill="none" stroke="#912cee" points="901.29,-265 905.29,-265 905.29,-261 901.29,-261 "/>
<text text-anchor="middle" x="938.29" y="-271.3" font-family="courrier" font-size="14.00">python3</text>
</g>
<!-- python3&#45;systemd&#45;&gt;python3 -->
<g id="edge8" class="edge">
<title>python3&#45;systemd&#45;&gt;python3</title>
<path fill="none" stroke="#912cee" d="M706.78,-285.02C763.3,-282.56 841.9,-279.15 891.16,-277"/>
<polygon fill="#912cee" stroke="#912cee" points="891.37,-280.5 901.21,-276.57 891.06,-273.51 891.37,-280.5"/>
<text text-anchor="middle" x="826.79" y="-284.8" font-family="courrier" font-size="14.00">(&lt;&lt; 3.12)</text>
</g>
<!-- python3&#45;systemd&#45;&gt;python3 -->
<g id="edge9" class="edge">
<title>python3&#45;systemd&#45;&gt;python3</title>
<path fill="none" stroke="#912cee" d="M706.98,-271.56C731.54,-266.46 759.51,-261.52 785.29,-259 822.01,-255.42 831.64,-254.81 868.29,-259 875.77,-259.86 883.61,-261.22 891.22,-262.79"/>
<polygon fill="#912cee" stroke="#912cee" points="890.52,-266.22 901.04,-264.96 892.03,-259.39 890.52,-266.22"/>
<text text-anchor="middle" x="826.79" y="-262.8" font-family="courrier" font-size="14.00">(&gt;= 3.11~)</text>
</g>
<!-- libsystemd0 -->
<g id="node10" class="node">
<title>libsystemd0</title>
<polygon fill="thistle" stroke="#912cee" points="988.79,-228 887.79,-228 887.79,-224 883.79,-224 883.79,-220 887.79,-220 887.79,-200 883.79,-200 883.79,-196 887.79,-196 887.79,-192 988.79,-192 988.79,-228"/>
<polyline fill="none" stroke="#912cee" points="887.79,-224 891.79,-224 891.79,-220 887.79,-220 "/>
<polyline fill="none" stroke="#912cee" points="887.79,-200 891.79,-200 891.79,-196 887.79,-196 "/>
<text text-anchor="middle" x="938.29" y="-206.3" font-family="courrier" font-size="14.00">libsystemd0</text>
</g>
<!-- python3&#45;systemd&#45;&gt;libsystemd0 -->
<g id="edge11" class="edge">
<title>python3&#45;systemd&#45;&gt;libsystemd0</title>
<path fill="none" stroke="#912cee" d="M706.88,-282.72C727.45,-278.82 749.3,-272.19 767.29,-261 778.31,-254.14 774.19,-244.72 785.29,-238 812.81,-221.34 847.88,-214.14 877.4,-211.2"/>
<polygon fill="#912cee" stroke="#912cee" points="877.92,-214.67 887.59,-210.33 877.33,-207.69 877.92,-214.67"/>
<text text-anchor="middle" x="826.79" y="-241.8" font-family="courrier" font-size="14.00">(&gt;= 246)</text>
</g>
<!-- pirogue&#45;cli&#45;&gt;python3:any -->
<g id="edge13" class="edge">
<title>pirogue&#45;cli&#45;&gt;python3:any</title>
<path fill="none" stroke="#912cee" d="M309.77,-2407.15C357.91,-2395.46 437.64,-2376.81 507,-2364 564.48,-2353.38 726.92,-2368.27 767.29,-2326 888.82,-2198.75 930.66,-855.1 936.54,-642.31"/>
<polygon fill="#912cee" stroke="#912cee" points="940.04,-642.35 936.82,-632.25 933.05,-642.15 940.04,-642.35"/>
</g>
<!-- python3&#45;requests -->
<g id="node12" class="node">
<title>python3&#45;requests</title>
<polygon fill="thistle" stroke="#912cee" points="707.15,-2841 567.15,-2841 567.15,-2837 563.15,-2837 563.15,-2833 567.15,-2833 567.15,-2813 563.15,-2813 563.15,-2809 567.15,-2809 567.15,-2805 707.15,-2805 707.15,-2841"/>
<polyline fill="none" stroke="#912cee" points="567.15,-2837 571.15,-2837 571.15,-2833 567.15,-2833 "/>
<polyline fill="none" stroke="#912cee" points="567.15,-2813 571.15,-2813 571.15,-2809 567.15,-2809 "/>
<text text-anchor="middle" x="637.15" y="-2819.3" font-family="courrier" font-size="14.00">python3&#45;requests</text>
</g>
<!-- pirogue&#45;cli&#45;&gt;python3&#45;requests -->
<g id="edge14" class="edge">
<title>pirogue&#45;cli&#45;&gt;python3&#45;requests</title>
<path fill="none" stroke="#912cee" d="M271.49,-2436.34C286.66,-2484.9 332.76,-2619.31 404,-2711 440.41,-2757.87 453.5,-2770.29 507,-2796 522.53,-2803.47 540.09,-2808.87 557.14,-2812.79"/>
<polygon fill="#912cee" stroke="#912cee" points="556.59,-2816.25 567.1,-2814.93 558.06,-2809.41 556.59,-2816.25"/>
</g>
<!-- python3&#45;rich -->
<g id="node13" class="node">
<title>python3&#45;rich</title>
<polygon fill="thistle" stroke="#912cee" points="690.15,-2787 584.15,-2787 584.15,-2783 580.15,-2783 580.15,-2779 584.15,-2779 584.15,-2759 580.15,-2759 580.15,-2755 584.15,-2755 584.15,-2751 690.15,-2751 690.15,-2787"/>
<polyline fill="none" stroke="#912cee" points="584.15,-2783 588.15,-2783 588.15,-2779 584.15,-2779 "/>
<polyline fill="none" stroke="#912cee" points="584.15,-2759 588.15,-2759 588.15,-2755 584.15,-2755 "/>
<text text-anchor="middle" x="637.15" y="-2765.3" font-family="courrier" font-size="14.00">python3&#45;rich</text>
</g>
<!-- pirogue&#45;cli&#45;&gt;python3&#45;rich -->
<g id="edge15" class="edge">
<title>pirogue&#45;cli&#45;&gt;python3&#45;rich</title>
<path fill="none" stroke="#912cee" d="M273.25,-2436.06C290.96,-2478.7 339.73,-2587.61 404,-2662 441.9,-2705.86 454.39,-2717.67 507,-2742 527.73,-2751.59 551.9,-2757.8 573.69,-2761.82"/>
<polygon fill="#912cee" stroke="#912cee" points="573.39,-2765.32 583.84,-2763.57 574.58,-2758.42 573.39,-2765.32"/>
</g>
<!-- python3&#45;psutil -->
<g id="node14" class="node">
<title>python3&#45;psutil</title>
<polygon fill="thistle" stroke="#912cee" points="696.15,-2733 578.15,-2733 578.15,-2729 574.15,-2729 574.15,-2725 578.15,-2725 578.15,-2705 574.15,-2705 574.15,-2701 578.15,-2701 578.15,-2697 696.15,-2697 696.15,-2733"/>
<polyline fill="none" stroke="#912cee" points="578.15,-2729 582.15,-2729 582.15,-2725 578.15,-2725 "/>
<polyline fill="none" stroke="#912cee" points="578.15,-2705 582.15,-2705 582.15,-2701 578.15,-2701 "/>
<text text-anchor="middle" x="637.15" y="-2711.3" font-family="courrier" font-size="14.00">python3&#45;psutil</text>
</g>
<!-- pirogue&#45;cli&#45;&gt;python3&#45;psutil -->
<g id="edge16" class="edge">
<title>pirogue&#45;cli&#45;&gt;python3&#45;psutil</title>
<path fill="none" stroke="#912cee" d="M275.07,-2436.17C301.95,-2487.64 386.86,-2634.22 507,-2688 525.96,-2696.49 547.69,-2702.35 567.85,-2706.38"/>
<polygon fill="#912cee" stroke="#912cee" points="567.44,-2709.86 577.91,-2708.27 568.73,-2702.99 567.44,-2709.86"/>
</g>
<!-- python3&#45;semver -->
<g id="node15" class="node">
<title>python3&#45;semver</title>
<polygon fill="thistle" stroke="#912cee" points="702.65,-2679 571.65,-2679 571.65,-2675 567.65,-2675 567.65,-2671 571.65,-2671 571.65,-2651 567.65,-2651 567.65,-2647 571.65,-2647 571.65,-2643 702.65,-2643 702.65,-2679"/>
<polyline fill="none" stroke="#912cee" points="571.65,-2675 575.65,-2675 575.65,-2671 571.65,-2671 "/>
<polyline fill="none" stroke="#912cee" points="571.65,-2651 575.65,-2651 575.65,-2647 571.65,-2647 "/>
<text text-anchor="middle" x="637.15" y="-2657.3" font-family="courrier" font-size="14.00">python3&#45;semver</text>
</g>
<!-- pirogue&#45;cli&#45;&gt;python3&#45;semver -->
<g id="edge17" class="edge">
<title>pirogue&#45;cli&#45;&gt;python3&#45;semver</title>
<path fill="none" stroke="#912cee" d="M279.23,-2436.16C312.05,-2479.58 402.16,-2589.08 507,-2634 524.05,-2641.31 543.25,-2646.69 561.51,-2650.64"/>
<polygon fill="#912cee" stroke="#912cee" points="561.05,-2654.12 571.55,-2652.69 562.45,-2647.26 561.05,-2654.12"/>
</g>
<!-- python3&#45;pydbus -->
<g id="node16" class="node">
<title>python3&#45;pydbus</title>
<polygon fill="thistle" stroke="#912cee" points="702.65,-2625 571.65,-2625 571.65,-2621 567.65,-2621 567.65,-2617 571.65,-2617 571.65,-2597 567.65,-2597 567.65,-2593 571.65,-2593 571.65,-2589 702.65,-2589 702.65,-2625"/>
<polyline fill="none" stroke="#912cee" points="571.65,-2621 575.65,-2621 575.65,-2617 571.65,-2617 "/>
<polyline fill="none" stroke="#912cee" points="571.65,-2597 575.65,-2597 575.65,-2593 571.65,-2593 "/>
<text text-anchor="middle" x="637.15" y="-2603.3" font-family="courrier" font-size="14.00">python3&#45;pydbus</text>
</g>
<!-- pirogue&#45;cli&#45;&gt;python3&#45;pydbus -->
<g id="edge18" class="edge">
<title>pirogue&#45;cli&#45;&gt;python3&#45;pydbus</title>
<path fill="none" stroke="#912cee" d="M286.19,-2436.03C325.57,-2470.11 416.68,-2543.82 507,-2580 524.13,-2586.86 543.28,-2592.08 561.47,-2596.01"/>
<polygon fill="#912cee" stroke="#912cee" points="560.95,-2599.48 571.45,-2598.06 562.36,-2592.62 560.95,-2599.48"/>
</g>
<!-- python3&#45;libusb1 -->
<g id="node17" class="node">
<title>python3&#45;libusb1</title>
<polygon fill="thistle" stroke="#912cee" points="702.65,-2571 571.65,-2571 571.65,-2567 567.65,-2567 567.65,-2563 571.65,-2563 571.65,-2543 567.65,-2543 567.65,-2539 571.65,-2539 571.65,-2535 702.65,-2535 702.65,-2571"/>
<polyline fill="none" stroke="#912cee" points="571.65,-2567 575.65,-2567 575.65,-2563 571.65,-2563 "/>
<polyline fill="none" stroke="#912cee" points="571.65,-2543 575.65,-2543 575.65,-2539 571.65,-2539 "/>
<text text-anchor="middle" x="637.15" y="-2549.3" font-family="courrier" font-size="14.00">python3&#45;libusb1</text>
</g>
<!-- pirogue&#45;cli&#45;&gt;python3&#45;libusb1 -->
<g id="edge19" class="edge">
<title>pirogue&#45;cli&#45;&gt;python3&#45;libusb1</title>
<path fill="none" stroke="#912cee" d="M300.19,-2436.16C346.08,-2459.86 430.68,-2501.24 507,-2526 524.37,-2531.64 543.45,-2536.38 561.49,-2540.24"/>
<polygon fill="#912cee" stroke="#912cee" points="560.88,-2543.69 571.39,-2542.3 562.31,-2536.84 560.88,-2543.69"/>
</g>
<!-- python3&#45;netifaces -->
<g id="node18" class="node">
<title>python3&#45;netifaces</title>
<polygon fill="thistle" stroke="#912cee" points="708.65,-1939 565.65,-1939 565.65,-1935 561.65,-1935 561.65,-1931 565.65,-1931 565.65,-1911 561.65,-1911 561.65,-1907 565.65,-1907 565.65,-1903 708.65,-1903 708.65,-1939"/>
<polyline fill="none" stroke="#912cee" points="565.65,-1935 569.65,-1935 569.65,-1931 565.65,-1931 "/>
<polyline fill="none" stroke="#912cee" points="565.65,-1911 569.65,-1911 569.65,-1907 565.65,-1907 "/>
<text text-anchor="middle" x="637.15" y="-1917.3" font-family="courrier" font-size="14.00">python3&#45;netifaces</text>
</g>
<!-- pirogue&#45;cli&#45;&gt;python3&#45;netifaces -->
<g id="edge20" class="edge">
<title>pirogue&#45;cli&#45;&gt;python3&#45;netifaces</title>
<path fill="none" stroke="#912cee" d="M280.14,-2399.75C319.85,-2347.54 433.12,-2191.78 489,-2044 504.35,-2003.4 476.62,-1979.01 507,-1948 519.92,-1934.81 537.49,-1927.25 555.52,-1923.08"/>
<polygon fill="#912cee" stroke="#912cee" points="556.43,-1926.47 565.56,-1921.1 555.07,-1919.61 556.43,-1926.47"/>
</g>
<!-- python3&#45;yaml -->
<g id="node19" class="node">
<title>python3&#45;yaml</title>
<polygon fill="thistle" stroke="#912cee" points="693.65,-2517 580.65,-2517 580.65,-2513 576.65,-2513 576.65,-2509 580.65,-2509 580.65,-2489 576.65,-2489 576.65,-2485 580.65,-2485 580.65,-2481 693.65,-2481 693.65,-2517"/>
<polyline fill="none" stroke="#912cee" points="580.65,-2513 584.65,-2513 584.65,-2509 580.65,-2509 "/>
<polyline fill="none" stroke="#912cee" points="580.65,-2489 584.65,-2489 584.65,-2485 580.65,-2485 "/>
<text text-anchor="middle" x="637.15" y="-2495.3" font-family="courrier" font-size="14.00">python3&#45;yaml</text>
</g>
<!-- pirogue&#45;cli&#45;&gt;python3&#45;yaml -->
<g id="edge21" class="edge">
<title>pirogue&#45;cli&#45;&gt;python3&#45;yaml</title>
<path fill="none" stroke="#912cee" d="M309.94,-2428.04C358.21,-2439.03 438.06,-2457.07 507,-2472 527.68,-2476.48 550.26,-2481.24 570.66,-2485.5"/>
<polygon fill="#912cee" stroke="#912cee" points="569.98,-2488.93 580.49,-2487.55 571.41,-2482.08 569.98,-2488.93"/>
</g>
<!-- python3&#45;gi -->
<g id="node20" class="node">
<title>python3&#45;gi</title>
<polygon fill="thistle" stroke="#912cee" points="683.15,-2463 591.15,-2463 591.15,-2459 587.15,-2459 587.15,-2455 591.15,-2455 591.15,-2435 587.15,-2435 587.15,-2431 591.15,-2431 591.15,-2427 683.15,-2427 683.15,-2463"/>
<polyline fill="none" stroke="#912cee" points="591.15,-2459 595.15,-2459 595.15,-2455 591.15,-2455 "/>
<polyline fill="none" stroke="#912cee" points="591.15,-2435 595.15,-2435 595.15,-2431 591.15,-2431 "/>
<text text-anchor="middle" x="637.15" y="-2441.3" font-family="courrier" font-size="14.00">python3&#45;gi</text>
</g>
<!-- pirogue&#45;cli&#45;&gt;python3&#45;gi -->
<g id="edge22" class="edge">
<title>pirogue&#45;cli&#45;&gt;python3&#45;gi</title>
<path fill="none" stroke="#912cee" d="M309.55,-2421.18C377.08,-2426.1 506.97,-2435.58 580.97,-2440.98"/>
<polygon fill="#912cee" stroke="#912cee" points="580.8,-2444.47 591.03,-2441.71 581.31,-2437.49 580.8,-2444.47"/>
</g>
<!-- python3&#45;communityid -->
<g id="node21" class="node">
<title>python3&#45;communityid</title>
<polygon fill="thistle" stroke="#912cee" points="722.15,-1831 552.15,-1831 552.15,-1827 548.15,-1827 548.15,-1823 552.15,-1823 552.15,-1803 548.15,-1803 548.15,-1799 552.15,-1799 552.15,-1795 722.15,-1795 722.15,-1831"/>
<polyline fill="none" stroke="#912cee" points="552.15,-1827 556.15,-1827 556.15,-1823 552.15,-1823 "/>
<polyline fill="none" stroke="#912cee" points="552.15,-1803 556.15,-1803 556.15,-1799 552.15,-1799 "/>
<text text-anchor="middle" x="637.15" y="-1809.3" font-family="courrier" font-size="14.00">python3&#45;communityid</text>
</g>
<!-- pirogue&#45;cli&#45;&gt;python3&#45;communityid -->
<g id="edge23" class="edge">
<title>pirogue&#45;cli&#45;&gt;python3&#45;communityid</title>
<path fill="none" stroke="#912cee" d="M267.34,-2399.87C274.39,-2319.01 314.47,-1988.68 507,-1840 517.4,-1831.97 529.63,-1826.18 542.34,-1822.03"/>
<polygon fill="#912cee" stroke="#912cee" points="543.51,-1825.34 552.13,-1819.17 541.55,-1818.62 543.51,-1825.34"/>
</g>
<!-- adb -->
<g id="node22" class="node">
<title>adb</title>
<polygon fill="thistle" stroke="#912cee" points="664.15,-2317 610.15,-2317 610.15,-2313 606.15,-2313 606.15,-2309 610.15,-2309 610.15,-2289 606.15,-2289 606.15,-2285 610.15,-2285 610.15,-2281 664.15,-2281 664.15,-2317"/>
<polyline fill="none" stroke="#912cee" points="610.15,-2313 614.15,-2313 614.15,-2309 610.15,-2309 "/>
<polyline fill="none" stroke="#912cee" points="610.15,-2289 614.15,-2289 614.15,-2285 610.15,-2285 "/>
<text text-anchor="middle" x="637.15" y="-2295.3" font-family="courrier" font-size="14.00">adb</text>
</g>
<!-- pirogue&#45;cli&#45;&gt;adb -->
<g id="edge24" class="edge">
<title>pirogue&#45;cli&#45;&gt;adb</title>
<path fill="none" stroke="#912cee" d="M288.38,-2399.89C314.47,-2379.81 359.7,-2348.13 404,-2332 470.18,-2307.9 552.95,-2301.3 599.65,-2299.56"/>
<polygon fill="#912cee" stroke="#912cee" points="600,-2303.05 609.88,-2299.23 599.77,-2296.05 600,-2303.05"/>
</g>
<!-- frida -->
<g id="node23" class="node">
<title>frida</title>
<polygon fill="thistle" stroke="#912cee" points="664.15,-2263 610.15,-2263 610.15,-2259 606.15,-2259 606.15,-2255 610.15,-2255 610.15,-2235 606.15,-2235 606.15,-2231 610.15,-2231 610.15,-2227 664.15,-2227 664.15,-2263"/>
<polyline fill="none" stroke="#912cee" points="610.15,-2259 614.15,-2259 614.15,-2255 610.15,-2255 "/>
<polyline fill="none" stroke="#912cee" points="610.15,-2235 614.15,-2235 614.15,-2231 610.15,-2231 "/>
<text text-anchor="middle" x="637.15" y="-2241.3" font-family="courrier" font-size="14.00">frida</text>
</g>
<!-- pirogue&#45;cli&#45;&gt;frida -->
<g id="edge25" class="edge">
<title>pirogue&#45;cli&#45;&gt;frida</title>
<path fill="none" stroke="#912cee" d="M284.11,-2399.89C309.13,-2375.75 356.57,-2333.06 404,-2307 467.73,-2271.98 552.3,-2255.9 599.79,-2249.21"/>
<polygon fill="#912cee" stroke="#912cee" points="600.46,-2252.65 609.9,-2247.85 599.52,-2245.72 600.46,-2252.65"/>
</g>
<!-- tshark -->
<g id="node24" class="node">
<title>tshark</title>
<polygon fill="thistle" stroke="#912cee" points="667.65,-2409 606.65,-2409 606.65,-2405 602.65,-2405 602.65,-2401 606.65,-2401 606.65,-2381 602.65,-2381 602.65,-2377 606.65,-2377 606.65,-2373 667.65,-2373 667.65,-2409"/>
<polyline fill="none" stroke="#912cee" points="606.65,-2405 610.65,-2405 610.65,-2401 606.65,-2401 "/>
<polyline fill="none" stroke="#912cee" points="606.65,-2381 610.65,-2381 610.65,-2377 606.65,-2377 "/>
<text text-anchor="middle" x="637.15" y="-2387.3" font-family="courrier" font-size="14.00">tshark</text>
</g>
<!-- pirogue&#45;cli&#45;&gt;tshark -->
<g id="edge26" class="edge">
<title>pirogue&#45;cli&#45;&gt;tshark</title>
<path fill="none" stroke="#912cee" d="M309.55,-2414.82C382.08,-2409.53 526.53,-2399 596.43,-2393.9"/>
<polygon fill="#912cee" stroke="#912cee" points="596.87,-2397.37 606.59,-2393.16 596.36,-2390.39 596.87,-2397.37"/>
</g>
<!-- tcpdump -->
<g id="node25" class="node">
<title>tcpdump</title>
<polygon fill="thistle" stroke="#912cee" points="676.65,-2209 597.65,-2209 597.65,-2205 593.65,-2205 593.65,-2201 597.65,-2201 597.65,-2181 593.65,-2181 593.65,-2177 597.65,-2177 597.65,-2173 676.65,-2173 676.65,-2209"/>
<polyline fill="none" stroke="#912cee" points="597.65,-2205 601.65,-2205 601.65,-2201 597.65,-2201 "/>
<polyline fill="none" stroke="#912cee" points="597.65,-2181 601.65,-2181 601.65,-2177 597.65,-2177 "/>
<text text-anchor="middle" x="637.15" y="-2187.3" font-family="courrier" font-size="14.00">tcpdump</text>
</g>
<!-- pirogue&#45;cli&#45;&gt;tcpdump -->
<g id="edge27" class="edge">
<title>pirogue&#45;cli&#45;&gt;tcpdump</title>
<path fill="none" stroke="#912cee" d="M279.59,-2399.65C302.57,-2369.58 351.74,-2309.23 404,-2270 445.01,-2239.21 458.6,-2234.95 507,-2218 532.92,-2208.93 562.88,-2202.43 587.42,-2198.09"/>
<polygon fill="#912cee" stroke="#912cee" points="588.3,-2201.49 597.57,-2196.36 587.13,-2194.59 588.3,-2201.49"/>
</g>
<!-- pirogue&#45;tools&#45;&gt;adb -->
<g id="edge37" class="edge">
<title>pirogue&#45;tools&#45;&gt;adb</title>
<path fill="none" stroke="#912cee" d="M269.4,-1831.06C280.65,-1887.41 320.83,-2063.39 404,-2183 438.54,-2232.67 452.77,-2245.18 507,-2272 536.27,-2286.48 573,-2293.21 599.79,-2296.32"/>
<polygon fill="#912cee" stroke="#912cee" points="599.59,-2299.82 609.9,-2297.38 600.32,-2292.86 599.59,-2299.82"/>
</g>
<!-- pirogue&#45;tools&#45;&gt;frida -->
<g id="edge40" class="edge">
<title>pirogue&#45;tools&#45;&gt;frida</title>
<path fill="none" stroke="#912cee" d="M270.61,-1831.09C284.3,-1882.28 328.51,-2030.97 404,-2132 439.7,-2179.77 453.32,-2192.01 507,-2218 536.39,-2232.23 573.1,-2238.99 599.87,-2242.18"/>
<polygon fill="#912cee" stroke="#912cee" points="599.64,-2245.67 609.96,-2243.27 600.39,-2238.71 599.64,-2245.67"/>
</g>
<!-- pirogue&#45;tools&#45;&gt;tcpdump -->
<g id="edge29" class="edge">
<title>pirogue&#45;tools&#45;&gt;tcpdump</title>
<path fill="none" stroke="#912cee" d="M272.25,-1831.2C288.57,-1876.93 335.99,-1998.96 404,-2082 441.07,-2127.27 454.04,-2139.12 507,-2164 532.15,-2175.81 562.45,-2182.49 587.39,-2186.25"/>
<polygon fill="#912cee" stroke="#912cee" points="586.97,-2189.73 597.36,-2187.65 587.94,-2182.8 586.97,-2189.73"/>
</g>
<!-- vim -->
<g id="node27" class="node">
<title>vim</title>
<polygon fill="thistle" stroke="#912cee" points="664.15,-1993 610.15,-1993 610.15,-1989 606.15,-1989 606.15,-1985 610.15,-1985 610.15,-1965 606.15,-1965 606.15,-1961 610.15,-1961 610.15,-1957 664.15,-1957 664.15,-1993"/>
<polyline fill="none" stroke="#912cee" points="610.15,-1989 614.15,-1989 614.15,-1985 610.15,-1985 "/>
<polyline fill="none" stroke="#912cee" points="610.15,-1965 614.15,-1965 614.15,-1961 610.15,-1961 "/>
<text text-anchor="middle" x="637.15" y="-1971.3" font-family="courrier" font-size="14.00">vim</text>
</g>
<!-- pirogue&#45;tools&#45;&gt;vim -->
<g id="edge30" class="edge">
<title>pirogue&#45;tools&#45;&gt;vim</title>
<path fill="none" stroke="#912cee" d="M292.16,-1831.21C335.06,-1860.24 423.91,-1916.88 507,-1948 537.3,-1959.35 573.48,-1966.39 599.83,-1970.43"/>
<polygon fill="#912cee" stroke="#912cee" points="599.36,-1973.9 609.76,-1971.88 600.37,-1966.97 599.36,-1973.9"/>
</g>
<!-- git -->
<g id="node28" class="node">
<title>git</title>
<polygon fill="thistle" stroke="#912cee" points="664.15,-1885 610.15,-1885 610.15,-1881 606.15,-1881 606.15,-1877 610.15,-1877 610.15,-1857 606.15,-1857 606.15,-1853 610.15,-1853 610.15,-1849 664.15,-1849 664.15,-1885"/>
<polyline fill="none" stroke="#912cee" points="610.15,-1881 614.15,-1881 614.15,-1877 610.15,-1877 "/>
<polyline fill="none" stroke="#912cee" points="610.15,-1857 614.15,-1857 614.15,-1853 610.15,-1853 "/>
<text text-anchor="middle" x="637.15" y="-1863.3" font-family="courrier" font-size="14.00">git</text>
</g>
<!-- pirogue&#45;tools&#45;&gt;git -->
<g id="edge31" class="edge">
<title>pirogue&#45;tools&#45;&gt;git</title>
<path fill="none" stroke="#912cee" d="M318.64,-1820.68C394.83,-1831.8 533.92,-1852.09 599.75,-1861.69"/>
<polygon fill="#912cee" stroke="#912cee" points="599.64,-1865.21 610.04,-1863.19 600.65,-1858.28 599.64,-1865.21"/>
</g>
<!-- gnupg2 -->
<g id="node29" class="node">
<title>gnupg2</title>
<polygon fill="thistle" stroke="#912cee" points="672.65,-1723 601.65,-1723 601.65,-1719 597.65,-1719 597.65,-1715 601.65,-1715 601.65,-1695 597.65,-1695 597.65,-1691 601.65,-1691 601.65,-1687 672.65,-1687 672.65,-1723"/>
<polyline fill="none" stroke="#912cee" points="601.65,-1719 605.65,-1719 605.65,-1715 601.65,-1715 "/>
<polyline fill="none" stroke="#912cee" points="601.65,-1695 605.65,-1695 605.65,-1691 601.65,-1691 "/>
<text text-anchor="middle" x="637.15" y="-1701.3" font-family="courrier" font-size="14.00">gnupg2</text>
</g>
<!-- pirogue&#45;tools&#45;&gt;gnupg2 -->
<g id="edge32" class="edge">
<title>pirogue&#45;tools&#45;&gt;gnupg2</title>
<path fill="none" stroke="#912cee" d="M314.41,-1794.85C362.71,-1777.18 439.27,-1750.39 507,-1732 534.88,-1724.43 566.64,-1717.76 591.68,-1712.95"/>
<polygon fill="#912cee" stroke="#912cee" points="592.45,-1716.37 601.62,-1711.07 591.15,-1709.49 592.45,-1716.37"/>
</g>
<!-- htop -->
<g id="node30" class="node">
<title>htop</title>
<polygon fill="thistle" stroke="#912cee" points="664.15,-1561 610.15,-1561 610.15,-1557 606.15,-1557 606.15,-1553 610.15,-1553 610.15,-1533 606.15,-1533 606.15,-1529 610.15,-1529 610.15,-1525 664.15,-1525 664.15,-1561"/>
<polyline fill="none" stroke="#912cee" points="610.15,-1557 614.15,-1557 614.15,-1553 610.15,-1553 "/>
<polyline fill="none" stroke="#912cee" points="610.15,-1533 614.15,-1533 614.15,-1529 610.15,-1529 "/>
<text text-anchor="middle" x="637.15" y="-1539.3" font-family="courrier" font-size="14.00">htop</text>
</g>
<!-- pirogue&#45;tools&#45;&gt;htop -->
<g id="edge33" class="edge">
<title>pirogue&#45;tools&#45;&gt;htop</title>
<path fill="none" stroke="#912cee" d="M275.88,-1794.87C296.07,-1759.11 345.15,-1678.51 404,-1627 443.37,-1592.54 457.96,-1588.22 507,-1570 537.33,-1558.73 573.51,-1551.68 599.84,-1547.62"/>
<polygon fill="#912cee" stroke="#912cee" points="600.39,-1551.08 609.78,-1546.16 599.37,-1544.15 600.39,-1551.08"/>
</g>
<!-- jq -->
<g id="node31" class="node">
<title>jq</title>
<polygon fill="thistle" stroke="#912cee" points="664.15,-1507 610.15,-1507 610.15,-1503 606.15,-1503 606.15,-1499 610.15,-1499 610.15,-1479 606.15,-1479 606.15,-1475 610.15,-1475 610.15,-1471 664.15,-1471 664.15,-1507"/>
<polyline fill="none" stroke="#912cee" points="610.15,-1503 614.15,-1503 614.15,-1499 610.15,-1499 "/>
<polyline fill="none" stroke="#912cee" points="610.15,-1479 614.15,-1479 614.15,-1475 610.15,-1475 "/>
<text text-anchor="middle" x="637.15" y="-1485.3" font-family="courrier" font-size="14.00">jq</text>
</g>
<!-- pirogue&#45;tools&#45;&gt;jq -->
<g id="edge34" class="edge">
<title>pirogue&#45;tools&#45;&gt;jq</title>
<path fill="none" stroke="#912cee" d="M272.42,-1794.77C288.48,-1751.33 334.21,-1640.27 404,-1572 458.42,-1518.77 549.27,-1499.44 599.67,-1492.6"/>
<polygon fill="#912cee" stroke="#912cee" points="600.3,-1496.05 609.78,-1491.32 599.42,-1489.1 600.3,-1496.05"/>
</g>
<!-- screen -->
<g id="node32" class="node">
<title>screen</title>
<polygon fill="thistle" stroke="#912cee" points="668.15,-1453 606.15,-1453 606.15,-1449 602.15,-1449 602.15,-1445 606.15,-1445 606.15,-1425 602.15,-1425 602.15,-1421 606.15,-1421 606.15,-1417 668.15,-1417 668.15,-1453"/>
<polyline fill="none" stroke="#912cee" points="606.15,-1449 610.15,-1449 610.15,-1445 606.15,-1445 "/>
<polyline fill="none" stroke="#912cee" points="606.15,-1425 610.15,-1425 610.15,-1421 606.15,-1421 "/>
<text text-anchor="middle" x="637.15" y="-1431.3" font-family="courrier" font-size="14.00">screen</text>
</g>
<!-- pirogue&#45;tools&#45;&gt;screen -->
<g id="edge35" class="edge">
<title>pirogue&#45;tools&#45;&gt;screen</title>
<path fill="none" stroke="#912cee" d="M270.04,-1794.98C282.11,-1744.85 322.21,-1601.81 404,-1516 455.25,-1462.23 544.09,-1444.14 595.73,-1438.06"/>
<polygon fill="#912cee" stroke="#912cee" points="596.29,-1441.52 605.85,-1436.97 595.54,-1434.56 596.29,-1441.52"/>
</g>
<!-- tmux -->
<g id="node33" class="node">
<title>tmux</title>
<polygon fill="thistle" stroke="#912cee" points="664.15,-2155 610.15,-2155 610.15,-2151 606.15,-2151 606.15,-2147 610.15,-2147 610.15,-2127 606.15,-2127 606.15,-2123 610.15,-2123 610.15,-2119 664.15,-2119 664.15,-2155"/>
<polyline fill="none" stroke="#912cee" points="610.15,-2151 614.15,-2151 614.15,-2147 610.15,-2147 "/>
<polyline fill="none" stroke="#912cee" points="610.15,-2127 614.15,-2127 614.15,-2123 610.15,-2123 "/>
<text text-anchor="middle" x="637.15" y="-2133.3" font-family="courrier" font-size="14.00">tmux</text>
</g>
<!-- pirogue&#45;tools&#45;&gt;tmux -->
<g id="edge36" class="edge">
<title>pirogue&#45;tools&#45;&gt;tmux</title>
<path fill="none" stroke="#912cee" d="M273.59,-1831.07C297.8,-1886.01 379.23,-2050.9 507,-2110 536.55,-2123.67 573.1,-2130.48 599.76,-2133.84"/>
<polygon fill="#912cee" stroke="#912cee" points="599.48,-2137.33 609.82,-2135 600.29,-2130.38 599.48,-2137.33"/>
</g>
<!-- python3&#45;mvt -->
<g id="node34" class="node">
<title>python3&#45;mvt</title>
<polygon fill="thistle" stroke="#912cee" points="690.65,-1777 583.65,-1777 583.65,-1773 579.65,-1773 579.65,-1769 583.65,-1769 583.65,-1749 579.65,-1749 579.65,-1745 583.65,-1745 583.65,-1741 690.65,-1741 690.65,-1777"/>
<polyline fill="none" stroke="#912cee" points="583.65,-1773 587.65,-1773 587.65,-1769 583.65,-1769 "/>
<polyline fill="none" stroke="#912cee" points="583.65,-1749 587.65,-1749 587.65,-1745 583.65,-1745 "/>
<text text-anchor="middle" x="637.15" y="-1755.3" font-family="courrier" font-size="14.00">python3&#45;mvt</text>
</g>
<!-- pirogue&#45;tools&#45;&gt;python3&#45;mvt -->
<g id="edge38" class="edge">
<title>pirogue&#45;tools&#45;&gt;python3&#45;mvt</title>
<path fill="none" stroke="#912cee" d="M318.64,-1805.32C385.7,-1795.54 501.47,-1778.65 573.14,-1768.19"/>
<polygon fill="#912cee" stroke="#912cee" points="574,-1771.6 583.39,-1766.7 572.99,-1764.68 574,-1771.6"/>
</g>
<!-- mitmproxy -->
<g id="node35" class="node">
<title>mitmproxy</title>
<polygon fill="thistle" stroke="#912cee" points="683.15,-2101 591.15,-2101 591.15,-2097 587.15,-2097 587.15,-2093 591.15,-2093 591.15,-2073 587.15,-2073 587.15,-2069 591.15,-2069 591.15,-2065 683.15,-2065 683.15,-2101"/>
<polyline fill="none" stroke="#912cee" points="591.15,-2097 595.15,-2097 595.15,-2093 591.15,-2093 "/>
<polyline fill="none" stroke="#912cee" points="591.15,-2073 595.15,-2073 595.15,-2069 591.15,-2069 "/>
<text text-anchor="middle" x="637.15" y="-2079.3" font-family="courrier" font-size="14.00">mitmproxy</text>
</g>
<!-- pirogue&#45;tools&#45;&gt;mitmproxy -->
<g id="edge39" class="edge">
<title>pirogue&#45;tools&#45;&gt;mitmproxy</title>
<path fill="none" stroke="#912cee" d="M276.97,-1831.16C306.82,-1878.64 394.85,-2006.22 507,-2056 530.16,-2066.28 557.42,-2072.72 580.91,-2076.71"/>
<polygon fill="#912cee" stroke="#912cee" points="580.64,-2080.21 591.07,-2078.33 581.75,-2073.3 580.64,-2080.21"/>
</g>
<!-- libimobiledevice&#45;utils -->
<g id="node36" class="node">
<title>libimobiledevice&#45;utils</title>
<polygon fill="thistle" stroke="#912cee" points="718.65,-1669 555.65,-1669 555.65,-1665 551.65,-1665 551.65,-1661 555.65,-1661 555.65,-1641 551.65,-1641 551.65,-1637 555.65,-1637 555.65,-1633 718.65,-1633 718.65,-1669"/>
<polyline fill="none" stroke="#912cee" points="555.65,-1665 559.65,-1665 559.65,-1661 555.65,-1661 "/>
<polyline fill="none" stroke="#912cee" points="555.65,-1641 559.65,-1641 559.65,-1637 555.65,-1637 "/>
<text text-anchor="middle" x="637.15" y="-1647.3" font-family="courrier" font-size="14.00">libimobiledevice&#45;utils</text>
</g>
<!-- pirogue&#45;tools&#45;&gt;libimobiledevice&#45;utils -->
<g id="edge41" class="edge">
<title>pirogue&#45;tools&#45;&gt;libimobiledevice&#45;utils</title>
<path fill="none" stroke="#912cee" d="M291.74,-1794.83C334.4,-1765.61 423.38,-1708.36 507,-1678 519.27,-1673.55 532.47,-1669.74 545.59,-1666.51"/>
<polygon fill="#912cee" stroke="#912cee" points="546.65,-1669.85 555.58,-1664.15 545.05,-1663.04 546.65,-1669.85"/>
</g>
<!-- apktool -->
<g id="node37" class="node">
<title>apktool</title>
<polygon fill="thistle" stroke="#912cee" points="671.15,-2047 603.15,-2047 603.15,-2043 599.15,-2043 599.15,-2039 603.15,-2039 603.15,-2019 599.15,-2019 599.15,-2015 603.15,-2015 603.15,-2011 671.15,-2011 671.15,-2047"/>
<polyline fill="none" stroke="#912cee" points="603.15,-2043 607.15,-2043 607.15,-2039 603.15,-2039 "/>
<polyline fill="none" stroke="#912cee" points="603.15,-2019 607.15,-2019 607.15,-2015 603.15,-2015 "/>
<text text-anchor="middle" x="637.15" y="-2025.3" font-family="courrier" font-size="14.00">apktool</text>
</g>
<!-- pirogue&#45;tools&#45;&gt;apktool -->
<g id="edge42" class="edge">
<title>pirogue&#45;tools&#45;&gt;apktool</title>
<path fill="none" stroke="#912cee" d="M282.29,-1831.13C318.4,-1869.98 409.71,-1961.08 507,-2002 534.37,-2013.51 567.14,-2020.29 592.82,-2024.17"/>
<polygon fill="#912cee" stroke="#912cee" points="592.6,-2027.68 603,-2025.62 593.59,-2020.75 592.6,-2027.68"/>
</g>
<!-- unzip -->
<g id="node38" class="node">
<title>unzip</title>
<polygon fill="thistle" stroke="#912cee" points="664.65,-1615 609.65,-1615 609.65,-1611 605.65,-1611 605.65,-1607 609.65,-1607 609.65,-1587 605.65,-1587 605.65,-1583 609.65,-1583 609.65,-1579 664.65,-1579 664.65,-1615"/>
<polyline fill="none" stroke="#912cee" points="609.65,-1611 613.65,-1611 613.65,-1607 609.65,-1607 "/>
<polyline fill="none" stroke="#912cee" points="609.65,-1587 613.65,-1587 613.65,-1583 609.65,-1583 "/>
<text text-anchor="middle" x="637.15" y="-1593.3" font-family="courrier" font-size="14.00">unzip</text>
</g>
<!-- pirogue&#45;tools&#45;&gt;unzip -->
<g id="edge43" class="edge">
<title>pirogue&#45;tools&#45;&gt;unzip</title>
<path fill="none" stroke="#912cee" d="M282.62,-1794.56C307.38,-1767.74 356.17,-1717.32 404,-1682 446.26,-1650.79 457.82,-1642.48 507,-1624 537.19,-1612.65 573.24,-1605.62 599.57,-1601.59"/>
<polygon fill="#912cee" stroke="#912cee" points="600.12,-1605.05 609.51,-1600.14 599.11,-1598.12 600.12,-1605.05"/>
</g>
<!-- netfilter&#45;persistent -->
<g id="node40" class="node">
<title>netfilter&#45;persistent</title>
<polygon fill="thistle" stroke="#912cee" points="709.65,-1075 564.65,-1075 564.65,-1071 560.65,-1071 560.65,-1067 564.65,-1067 564.65,-1047 560.65,-1047 560.65,-1043 564.65,-1043 564.65,-1039 709.65,-1039 709.65,-1075"/>
<polyline fill="none" stroke="#912cee" points="564.65,-1071 568.65,-1071 568.65,-1067 564.65,-1067 "/>
<polyline fill="none" stroke="#912cee" points="564.65,-1047 568.65,-1047 568.65,-1043 564.65,-1043 "/>
<text text-anchor="middle" x="637.15" y="-1053.3" font-family="courrier" font-size="14.00">netfilter&#45;persistent</text>
</g>
<!-- pirogue&#45;ap&#45;&gt;netfilter&#45;persistent -->
<g id="edge45" class="edge">
<title>pirogue&#45;ap&#45;&gt;netfilter&#45;persistent</title>
<path fill="none" stroke="#912cee" d="M311.26,-1148C359.33,-1130.37 437.78,-1102.8 507,-1084 522.29,-1079.85 538.74,-1075.97 554.61,-1072.52"/>
<polygon fill="#912cee" stroke="#912cee" points="555.35,-1075.94 564.4,-1070.43 553.89,-1069.1 555.35,-1075.94"/>
</g>
<!-- iptables&#45;persistent -->
<g id="node41" class="node">
<title>iptables&#45;persistent</title>
<polygon fill="thistle" stroke="#912cee" points="710.15,-1399 564.15,-1399 564.15,-1395 560.15,-1395 560.15,-1391 564.15,-1391 564.15,-1371 560.15,-1371 560.15,-1367 564.15,-1367 564.15,-1363 710.15,-1363 710.15,-1399"/>
<polyline fill="none" stroke="#912cee" points="564.15,-1395 568.15,-1395 568.15,-1391 564.15,-1391 "/>
<polyline fill="none" stroke="#912cee" points="564.15,-1371 568.15,-1371 568.15,-1367 564.15,-1367 "/>
<text text-anchor="middle" x="637.15" y="-1377.3" font-family="courrier" font-size="14.00">iptables&#45;persistent</text>
</g>
<!-- pirogue&#45;ap&#45;&gt;iptables&#45;persistent -->
<g id="edge46" class="edge">
<title>pirogue&#45;ap&#45;&gt;iptables&#45;persistent</title>
<path fill="none" stroke="#912cee" d="M282.29,-1183.13C318.4,-1221.98 409.71,-1313.08 507,-1354 521.77,-1360.21 538.12,-1365.05 554.08,-1368.79"/>
<polygon fill="#912cee" stroke="#912cee" points="553.42,-1372.23 563.94,-1370.99 554.94,-1365.4 553.42,-1372.23"/>
</g>
<!-- hostapd -->
<g id="node42" class="node">
<title>hostapd</title>
<polygon fill="thistle" stroke="#912cee" points="673.65,-1345 600.65,-1345 600.65,-1341 596.65,-1341 596.65,-1337 600.65,-1337 600.65,-1317 596.65,-1317 596.65,-1313 600.65,-1313 600.65,-1309 673.65,-1309 673.65,-1345"/>
<polyline fill="none" stroke="#912cee" points="600.65,-1341 604.65,-1341 604.65,-1337 600.65,-1337 "/>
<polyline fill="none" stroke="#912cee" points="600.65,-1317 604.65,-1317 604.65,-1313 600.65,-1313 "/>
<text text-anchor="middle" x="637.15" y="-1323.3" font-family="courrier" font-size="14.00">hostapd</text>
</g>
<!-- pirogue&#45;ap&#45;&gt;hostapd -->
<g id="edge47" class="edge">
<title>pirogue&#45;ap&#45;&gt;hostapd</title>
<path fill="none" stroke="#912cee" d="M292.16,-1183.21C335.06,-1212.24 423.91,-1268.88 507,-1300 533.87,-1310.06 565.36,-1316.74 590.51,-1320.94"/>
<polygon fill="#912cee" stroke="#912cee" points="590.1,-1324.42 600.52,-1322.54 591.2,-1317.5 590.1,-1324.42"/>
</g>
<!-- dnsmasq -->
<g id="node43" class="node">
<title>dnsmasq</title>
<polygon fill="thistle" stroke="#912cee" points="677.15,-1291 597.15,-1291 597.15,-1287 593.15,-1287 593.15,-1283 597.15,-1283 597.15,-1263 593.15,-1263 593.15,-1259 597.15,-1259 597.15,-1255 677.15,-1255 677.15,-1291"/>
<polyline fill="none" stroke="#912cee" points="597.15,-1287 601.15,-1287 601.15,-1283 597.15,-1283 "/>
<polyline fill="none" stroke="#912cee" points="597.15,-1263 601.15,-1263 601.15,-1259 597.15,-1259 "/>
<text text-anchor="middle" x="637.15" y="-1269.3" font-family="courrier" font-size="14.00">dnsmasq</text>
</g>
<!-- pirogue&#45;ap&#45;&gt;dnsmasq -->
<g id="edge48" class="edge">
<title>pirogue&#45;ap&#45;&gt;dnsmasq</title>
<path fill="none" stroke="#912cee" d="M311.26,-1182C359.33,-1199.63 437.78,-1227.2 507,-1246 533.11,-1253.09 562.62,-1259.39 586.84,-1264.11"/>
<polygon fill="#912cee" stroke="#912cee" points="586.38,-1267.59 596.87,-1266.04 587.71,-1260.71 586.38,-1267.59"/>
</g>
<!-- rfkill -->
<g id="node44" class="node">
<title>rfkill</title>
<polygon fill="thistle" stroke="#912cee" points="664.15,-1237 610.15,-1237 610.15,-1233 606.15,-1233 606.15,-1229 610.15,-1229 610.15,-1209 606.15,-1209 606.15,-1205 610.15,-1205 610.15,-1201 664.15,-1201 664.15,-1237"/>
<polyline fill="none" stroke="#912cee" points="610.15,-1233 614.15,-1233 614.15,-1229 610.15,-1229 "/>
<polyline fill="none" stroke="#912cee" points="610.15,-1209 614.15,-1209 614.15,-1205 610.15,-1205 "/>
<text text-anchor="middle" x="637.15" y="-1215.3" font-family="courrier" font-size="14.00">rfkill</text>
</g>
<!-- pirogue&#45;ap&#45;&gt;rfkill -->
<g id="edge49" class="edge">
<title>pirogue&#45;ap&#45;&gt;rfkill</title>
<path fill="none" stroke="#912cee" d="M311.02,-1171.57C385.08,-1182.37 531.22,-1203.69 599.45,-1213.65"/>
<polygon fill="#912cee" stroke="#912cee" points="599.3,-1217.16 609.71,-1215.14 600.32,-1210.24 599.3,-1217.16"/>
</g>
<!-- dhcpcd5 -->
<g id="node45" class="node">
<title>dhcpcd5</title>
<polygon fill="thistle" stroke="#912cee" points="675.65,-1183 598.65,-1183 598.65,-1179 594.65,-1179 594.65,-1175 598.65,-1175 598.65,-1155 594.65,-1155 594.65,-1151 598.65,-1151 598.65,-1147 675.65,-1147 675.65,-1183"/>
<polyline fill="none" stroke="#912cee" points="598.65,-1179 602.65,-1179 602.65,-1175 598.65,-1175 "/>
<polyline fill="none" stroke="#912cee" points="598.65,-1155 602.65,-1155 602.65,-1151 598.65,-1151 "/>
<text text-anchor="middle" x="637.15" y="-1161.3" font-family="courrier" font-size="14.00">dhcpcd5</text>
</g>
<!-- pirogue&#45;ap&#45;&gt;dhcpcd5 -->
<g id="edge50" class="edge">
<title>pirogue&#45;ap&#45;&gt;dhcpcd5</title>
<path fill="none" stroke="#912cee" d="M311.02,-1165C381.26,-1165 516.31,-1165 588.27,-1165"/>
<polygon fill="#912cee" stroke="#912cee" points="588.41,-1168.5 598.41,-1165 588.41,-1161.5 588.41,-1168.5"/>
</g>
<!-- pirogue&#45;network&#45;routing -->
<g id="node46" class="node">
<title>pirogue&#45;network&#45;routing</title>
<polygon fill="thistle" stroke="#912cee" points="767.44,-1103.54 767.44,-1118.46 691.11,-1129 583.18,-1129 506.85,-1118.46 506.85,-1103.54 583.18,-1093 691.11,-1093 767.44,-1103.54"/>
<text text-anchor="middle" x="637.15" y="-1107.3" font-family="courrier" font-size="14.00">pirogue&#45;network&#45;routing</text>
</g>
<!-- pirogue&#45;ap&#45;&gt;pirogue&#45;network&#45;routing -->
<g id="edge51" class="edge">
<title>pirogue&#45;ap&#45;&gt;pirogue&#45;network&#45;routing</title>
<path fill="none" stroke="red" d="M311.02,-1153.83C361.33,-1144.47 444.91,-1131.68 514.72,-1122.33"/>
<polygon fill="red" stroke="red" points="515.47,-1125.76 524.92,-1120.98 514.55,-1118.83 515.47,-1125.76"/>
</g>
<!-- pirogue&#45;network&#45;routing&#45;&gt;pirogue&#45;ap -->
<g id="edge90" class="edge">
<title>pirogue&#45;network&#45;routing&#45;&gt;pirogue&#45;ap</title>
<path fill="none" stroke="green" d="M555.98,-1128.37C481.02,-1141.04 371.77,-1156.62 311.02,-1163.03"/>
<polygon fill="green" stroke="green" points="566.45,-1130.13 556.01,-1128.37 565.28,-1123.23 566.45,-1130.13"/>
</g>
<!-- i2c&#45;tools -->
<g id="node48" class="node">
<title>i2c&#45;tools</title>
<polygon fill="thistle" stroke="#912cee" points="674.65,-1021 599.65,-1021 599.65,-1017 595.65,-1017 595.65,-1013 599.65,-1013 599.65,-993 595.65,-993 595.65,-989 599.65,-989 599.65,-985 674.65,-985 674.65,-1021"/>
<polyline fill="none" stroke="#912cee" points="599.65,-1017 603.65,-1017 603.65,-1013 599.65,-1013 "/>
<polyline fill="none" stroke="#912cee" points="599.65,-993 603.65,-993 603.65,-989 599.65,-989 "/>
<text text-anchor="middle" x="637.15" y="-999.3" font-family="courrier" font-size="14.00">i2c&#45;tools</text>
</g>
<!-- pirogue&#45;hat&#45;&gt;i2c&#45;tools -->
<g id="edge53" class="edge">
<title>pirogue&#45;hat&#45;&gt;i2c&#45;tools</title>
<path fill="none" stroke="#912cee" d="M313.75,-922.52C362.19,-937.01 439.44,-959.43 507,-976 534.28,-982.69 565.05,-989.17 589.71,-994.1"/>
<polygon fill="#912cee" stroke="#912cee" points="589.04,-997.53 599.53,-996.04 590.4,-990.67 589.04,-997.53"/>
</g>
<!-- pirogue&#45;hardware&#45;detection -->
<g id="node49" class="node">
<title>pirogue&#45;hardware&#45;detection</title>
<polygon fill="thistle" stroke="#912cee" points="741.65,-805 532.65,-805 532.65,-801 528.65,-801 528.65,-797 532.65,-797 532.65,-777 528.65,-777 528.65,-773 532.65,-773 532.65,-769 741.65,-769 741.65,-805"/>
<polyline fill="none" stroke="#912cee" points="532.65,-801 536.65,-801 536.65,-797 532.65,-797 "/>
<polyline fill="none" stroke="#912cee" points="532.65,-777 536.65,-777 536.65,-773 532.65,-773 "/>
<text text-anchor="middle" x="637.15" y="-783.3" font-family="courrier" font-size="14.00">pirogue&#45;hardware&#45;detection</text>
</g>
<!-- pirogue&#45;hat&#45;&gt;pirogue&#45;hardware&#45;detection -->
<g id="edge54" class="edge">
<title>pirogue&#45;hat&#45;&gt;pirogue&#45;hardware&#45;detection</title>
<path fill="none" stroke="#912cee" d="M306.22,-889.94C353.49,-869.27 434.68,-835.5 507,-814 514.73,-811.7 522.77,-809.53 530.9,-807.48"/>
<polygon fill="#912cee" stroke="#912cee" points="531.95,-810.83 540.83,-805.05 530.29,-804.03 531.95,-810.83"/>
</g>
<!-- fake&#45;hwclock -->
<g id="node50" class="node">
<title>fake&#45;hwclock</title>
<polygon fill="thistle" stroke="#912cee" points="690.65,-967 583.65,-967 583.65,-931 690.65,-931 690.65,-967"/>
<text text-anchor="middle" x="637.15" y="-945.3" font-family="courrier" font-size="14.00">fake&#45;hwclock</text>
</g>
<!-- pirogue&#45;hat&#45;&gt;fake&#45;hwclock -->
<g id="edge55" class="edge">
<title>pirogue&#45;hat&#45;&gt;fake&#45;hwclock</title>
<path fill="none" stroke="red" d="M313.63,-913.28C379.93,-920.62 500.13,-933.93 573.58,-942.07"/>
<polygon fill="red" stroke="red" points="573.3,-945.56 583.63,-943.18 574.07,-938.6 573.3,-945.56"/>
</g>
<!-- grafana -->
<g id="node52" class="node">
<title>grafana</title>
<polygon fill="thistle" stroke="#912cee" points="672.65,-913 601.65,-913 601.65,-909 597.65,-909 597.65,-905 601.65,-905 601.65,-885 597.65,-885 597.65,-881 601.65,-881 601.65,-877 672.65,-877 672.65,-913"/>
<polyline fill="none" stroke="#912cee" points="601.65,-909 605.65,-909 605.65,-905 601.65,-905 "/>
<polyline fill="none" stroke="#912cee" points="601.65,-885 605.65,-885 605.65,-881 601.65,-881 "/>
<text text-anchor="middle" x="637.15" y="-891.3" font-family="courrier" font-size="14.00">grafana</text>
</g>
<!-- pirogue&#45;dashboard&#45;&gt;grafana -->
<g id="edge57" class="edge">
<title>pirogue&#45;dashboard&#45;&gt;grafana</title>
<path fill="none" stroke="#912cee" d="M306.66,-820.04C333.78,-831.46 370.47,-845.77 404,-855 467.97,-872.61 544.09,-883.97 591.27,-889.92"/>
<polygon fill="#912cee" stroke="#912cee" points="591.11,-893.43 601.46,-891.18 591.97,-886.48 591.11,-893.43"/>
</g>
<!-- influxdb -->
<g id="node53" class="node">
<title>influxdb</title>
<polygon fill="thistle" stroke="#912cee" points="674.15,-659 600.15,-659 600.15,-655 596.15,-655 596.15,-651 600.15,-651 600.15,-631 596.15,-631 596.15,-627 600.15,-627 600.15,-623 674.15,-623 674.15,-659"/>
<polyline fill="none" stroke="#912cee" points="600.15,-655 604.15,-655 604.15,-651 600.15,-651 "/>
<polyline fill="none" stroke="#912cee" points="600.15,-631 604.15,-631 604.15,-627 600.15,-627 "/>
<text text-anchor="middle" x="637.15" y="-637.3" font-family="courrier" font-size="14.00">influxdb</text>
</g>
<!-- pirogue&#45;dashboard&#45;&gt;influxdb -->
<g id="edge58" class="edge">
<title>pirogue&#45;dashboard&#45;&gt;influxdb</title>
<path fill="none" stroke="#912cee" d="M327.64,-783.92C347.7,-776.02 369.13,-765.23 386,-751 397.31,-741.46 392.4,-732.18 404,-723 459.34,-679.2 539.88,-657.79 590.08,-648.1"/>
<polygon fill="#912cee" stroke="#912cee" points="590.81,-651.53 600,-646.27 589.53,-644.65 590.81,-651.53"/>
</g>
<!-- pirogue&#45;eve&#45;collector&#45;&gt;python3:any -->
<g id="edge60" class="edge">
<title>pirogue&#45;eve&#45;collector&#45;&gt;python3:any</title>
<path fill="none" stroke="#912cee" d="M346.83,-558.59C467.47,-554.03 688.81,-547.84 767.29,-560 807.4,-566.22 851,-580.22 884,-592.41"/>
<polygon fill="#912cee" stroke="#912cee" points="882.86,-595.72 893.45,-595.96 885.32,-589.17 882.86,-595.72"/>
</g>
<!-- pirogue&#45;eve&#45;collector&#45;&gt;python3&#45;systemd -->
<g id="edge65" class="edge">
<title>pirogue&#45;eve&#45;collector&#45;&gt;python3&#45;systemd</title>
<path fill="none" stroke="#912cee" d="M280.28,-543.98C303.86,-514.98 353.38,-457.26 404,-418 445.51,-385.8 461.17,-385.68 507,-360 536.32,-343.57 569.43,-325.12 594.78,-311"/>
<polygon fill="#912cee" stroke="#912cee" points="596.71,-313.93 603.75,-306.01 593.31,-307.82 596.71,-313.93"/>
</g>
<!-- pirogue&#45;eve&#45;collector&#45;&gt;influxdb -->
<g id="edge62" class="edge">
<title>pirogue&#45;eve&#45;collector&#45;&gt;influxdb</title>
<path fill="none" stroke="#912cee" d="M346.58,-579.52C393.39,-589.67 453.51,-602.64 507,-614 534.57,-619.86 565.47,-626.32 590.14,-631.46"/>
<polygon fill="#912cee" stroke="#912cee" points="589.45,-634.89 599.95,-633.5 590.87,-628.03 589.45,-634.89"/>
</g>
<!-- suricata -->
<g id="node55" class="node">
<title>suricata</title>
<polygon fill="thistle" stroke="#912cee" points="673.15,-605 601.15,-605 601.15,-601 597.15,-601 597.15,-597 601.15,-597 601.15,-577 597.15,-577 597.15,-573 601.15,-573 601.15,-569 673.15,-569 673.15,-605"/>
<polyline fill="none" stroke="#912cee" points="601.15,-601 605.15,-601 605.15,-597 601.15,-597 "/>
<polyline fill="none" stroke="#912cee" points="601.15,-577 605.15,-577 605.15,-573 601.15,-573 "/>
<text text-anchor="middle" x="637.15" y="-583.3" font-family="courrier" font-size="14.00">suricata</text>
</g>
<!-- pirogue&#45;eve&#45;collector&#45;&gt;suricata -->
<g id="edge61" class="edge">
<title>pirogue&#45;eve&#45;collector&#45;&gt;suricata</title>
<path fill="none" stroke="#912cee" d="M346.61,-568.69C365.44,-570.18 385.42,-571.7 404,-573 468.97,-577.55 544.23,-581.92 591.02,-584.54"/>
<polygon fill="#912cee" stroke="#912cee" points="590.95,-588.04 601.13,-585.1 591.34,-581.05 590.95,-588.04"/>
</g>
<!-- chronograf -->
<g id="node56" class="node">
<title>chronograf</title>
<polygon fill="thistle" stroke="#912cee" points="683.15,-405 591.15,-405 591.15,-401 587.15,-401 587.15,-397 591.15,-397 591.15,-377 587.15,-377 587.15,-373 591.15,-373 591.15,-369 683.15,-369 683.15,-405"/>
<polyline fill="none" stroke="#912cee" points="591.15,-401 595.15,-401 595.15,-397 591.15,-397 "/>
<polyline fill="none" stroke="#912cee" points="591.15,-377 595.15,-377 595.15,-373 591.15,-373 "/>
<text text-anchor="middle" x="637.15" y="-383.3" font-family="courrier" font-size="14.00">chronograf</text>
</g>
<!-- pirogue&#45;eve&#45;collector&#45;&gt;chronograf -->
<g id="edge63" class="edge">
<title>pirogue&#45;eve&#45;collector&#45;&gt;chronograf</title>
<path fill="none" stroke="#912cee" d="M288.76,-543.98C329.82,-512.43 420.14,-447.37 507,-414 530.47,-404.98 557.55,-398.74 580.84,-394.54"/>
<polygon fill="#912cee" stroke="#912cee" points="581.64,-397.95 590.9,-392.81 580.45,-391.05 581.64,-397.95"/>
</g>
<!-- python3&#45;influxdb -->
<g id="node57" class="node">
<title>python3&#45;influxdb</title>
<polygon fill="thistle" stroke="#912cee" points="705.65,-513 568.65,-513 568.65,-509 564.65,-509 564.65,-505 568.65,-505 568.65,-485 564.65,-485 564.65,-481 568.65,-481 568.65,-477 705.65,-477 705.65,-513"/>
<polyline fill="none" stroke="#912cee" points="568.65,-509 572.65,-509 572.65,-505 568.65,-505 "/>
<polyline fill="none" stroke="#912cee" points="568.65,-485 572.65,-485 572.65,-481 568.65,-481 "/>
<text text-anchor="middle" x="637.15" y="-491.3" font-family="courrier" font-size="14.00">python3&#45;influxdb</text>
</g>
<!-- pirogue&#45;eve&#45;collector&#45;&gt;python3&#45;influxdb -->
<g id="edge64" class="edge">
<title>pirogue&#45;eve&#45;collector&#45;&gt;python3&#45;influxdb</title>
<path fill="none" stroke="#912cee" d="M290.88,-543.74C317.37,-525.51 361.29,-498.73 404,-488 454.35,-475.35 512.78,-477.2 558.43,-482.16"/>
<polygon fill="#912cee" stroke="#912cee" points="558.22,-485.66 568.55,-483.33 559.02,-478.7 558.22,-485.66"/>
</g>
<!-- pirogue&#45;flow&#45;inspector&#45;&gt;python3:any -->
<g id="edge67" class="edge">
<title>pirogue&#45;flow&#45;inspector&#45;&gt;python3:any</title>
<path fill="none" stroke="#912cee" d="M351.67,-716.48C473.39,-705.44 690.15,-684.4 767.29,-668 805.31,-659.92 846.92,-646.78 879.45,-635.49"/>
<polygon fill="#912cee" stroke="#912cee" points="880.97,-638.67 889.24,-632.05 878.65,-632.06 880.97,-638.67"/>
</g>
<!-- pirogue&#45;flow&#45;inspector&#45;&gt;python3&#45;systemd -->
<g id="edge74" class="edge">
<title>pirogue&#45;flow&#45;inspector&#45;&gt;python3&#45;systemd</title>
<path fill="none" stroke="#912cee" d="M343.65,-705.96C359.99,-698.64 375.45,-688.38 386,-674 412.39,-638.02 382.6,-513.16 404,-474 426.94,-432.03 460.64,-446.52 489,-408 502.51,-389.65 492.14,-377.27 507,-360 525.63,-338.35 552.47,-321.91 576.86,-310.25"/>
<polygon fill="#912cee" stroke="#912cee" points="578.44,-313.38 586.06,-306.02 575.51,-307.02 578.44,-313.38"/>
</g>
<!-- pirogue&#45;flow&#45;inspector&#45;&gt;python3&#45;netifaces -->
<g id="edge75" class="edge">
<title>pirogue&#45;flow&#45;inspector&#45;&gt;python3&#45;netifaces</title>
<path fill="none" stroke="#912cee" d="M342.98,-742.1C359.66,-749.6 375.44,-760.15 386,-775 403.23,-799.23 401.21,-1012.4 404,-1042 421.86,-1231.87 378.05,-1753.49 507,-1894 519.67,-1907.8 537.43,-1915.54 555.73,-1919.69"/>
<polygon fill="#912cee" stroke="#912cee" points="555.14,-1923.14 565.62,-1921.58 556.46,-1916.26 555.14,-1923.14"/>
</g>
<!-- pirogue&#45;flow&#45;inspector&#45;&gt;python3&#45;communityid -->
<g id="edge72" class="edge">
<title>pirogue&#45;flow&#45;inspector&#45;&gt;python3&#45;communityid</title>
<path fill="none" stroke="#912cee" d="M338.6,-742.09C356.3,-749.64 373.67,-760.23 386,-775 419.35,-814.97 482.4,-1180.37 489,-1232 492.9,-1262.55 487.2,-1762.42 507,-1786 516.19,-1796.94 528.56,-1804.15 542.03,-1808.8"/>
<polygon fill="#912cee" stroke="#912cee" points="541.41,-1812.27 551.99,-1811.75 543.4,-1805.56 541.41,-1812.27"/>
</g>
<!-- pirogue&#45;flow&#45;inspector&#45;&gt;influxdb -->
<g id="edge68" class="edge">
<title>pirogue&#45;flow&#45;inspector&#45;&gt;influxdb</title>
<path fill="none" stroke="#912cee" d="M311.05,-705.96C337.71,-695.88 372.36,-683.82 404,-676 467.46,-660.32 542.51,-650.55 589.73,-645.44"/>
<polygon fill="#912cee" stroke="#912cee" points="590.37,-648.89 599.95,-644.36 589.64,-641.93 590.37,-648.89"/>
</g>
<!-- pirogue&#45;flow&#45;inspector&#45;&gt;python3&#45;influxdb -->
<g id="edge69" class="edge">
<title>pirogue&#45;flow&#45;inspector&#45;&gt;python3&#45;influxdb</title>
<path fill="none" stroke="#912cee" d="M322.85,-705.91C343.7,-697.87 366.86,-687.2 386,-674 395.58,-667.4 395.72,-663.17 404,-655 448.33,-611.26 455.8,-595.45 507,-560 530.77,-543.54 559.31,-528.73 583.5,-517.42"/>
<polygon fill="#912cee" stroke="#912cee" points="585.26,-520.46 592.88,-513.1 582.33,-514.1 585.26,-520.46"/>
</g>
<!-- python3&#45;nfstream -->
<g id="node59" class="node">
<title>python3&#45;nfstream</title>
<polygon fill="thistle" stroke="#912cee" points="708.15,-859 566.15,-859 566.15,-855 562.15,-855 562.15,-851 566.15,-851 566.15,-831 562.15,-831 562.15,-827 566.15,-827 566.15,-823 708.15,-823 708.15,-859"/>
<polyline fill="none" stroke="#912cee" points="566.15,-855 570.15,-855 570.15,-851 566.15,-851 "/>
<polyline fill="none" stroke="#912cee" points="566.15,-831 570.15,-831 570.15,-827 566.15,-827 "/>
<text text-anchor="middle" x="637.15" y="-837.3" font-family="courrier" font-size="14.00">python3&#45;nfstream</text>
</g>
<!-- pirogue&#45;flow&#45;inspector&#45;&gt;python3&#45;nfstream -->
<g id="edge70" class="edge">
<title>pirogue&#45;flow&#45;inspector&#45;&gt;python3&#45;nfstream</title>
<path fill="none" stroke="#912cee" d="M308.44,-742.09C356.08,-761.85 436,-793.45 507,-814 522.67,-818.54 539.62,-822.64 555.92,-826.2"/>
<polygon fill="#912cee" stroke="#912cee" points="555.45,-829.68 565.96,-828.34 556.92,-822.83 555.45,-829.68"/>
</g>
<!-- python3&#45;numpy -->
<g id="node60" class="node">
<title>python3&#45;numpy</title>
<polygon fill="thistle" stroke="#912cee" points="701.15,-459 573.15,-459 573.15,-455 569.15,-455 569.15,-451 573.15,-451 573.15,-431 569.15,-431 569.15,-427 573.15,-427 573.15,-423 701.15,-423 701.15,-459"/>
<polyline fill="none" stroke="#912cee" points="573.15,-455 577.15,-455 577.15,-451 573.15,-451 "/>
<polyline fill="none" stroke="#912cee" points="573.15,-431 577.15,-431 577.15,-427 573.15,-427 "/>
<text text-anchor="middle" x="637.15" y="-437.3" font-family="courrier" font-size="14.00">python3&#45;numpy</text>
</g>
<!-- pirogue&#45;flow&#45;inspector&#45;&gt;python3&#45;numpy -->
<g id="edge71" class="edge">
<title>pirogue&#45;flow&#45;inspector&#45;&gt;python3&#45;numpy</title>
<path fill="none" stroke="#912cee" d="M342.11,-705.92C358.81,-698.59 374.83,-688.33 386,-674 419.17,-631.48 377.58,-601.01 404,-554 433.22,-502.01 453.32,-493.99 507,-468 524.3,-459.62 544.14,-453.84 562.99,-449.84"/>
<polygon fill="#912cee" stroke="#912cee" points="563.9,-453.23 573.03,-447.86 562.55,-446.36 563.9,-453.23"/>
<text text-anchor="middle" x="446.5" y="-557.8" font-family="courrier" font-size="14.00">(&gt;= 1:1.22)</text>
</g>
<!-- python3&#45;geoip2 -->
<g id="node61" class="node">
<title>python3&#45;geoip2</title>
<polygon fill="thistle" stroke="#912cee" points="700.65,-751 573.65,-751 573.65,-747 569.65,-747 569.65,-743 573.65,-743 573.65,-723 569.65,-723 569.65,-719 573.65,-719 573.65,-715 700.65,-715 700.65,-751"/>
<polyline fill="none" stroke="#912cee" points="573.65,-747 577.65,-747 577.65,-743 573.65,-743 "/>
<polyline fill="none" stroke="#912cee" points="573.65,-723 577.65,-723 577.65,-719 573.65,-719 "/>
<text text-anchor="middle" x="637.15" y="-729.3" font-family="courrier" font-size="14.00">python3&#45;geoip2</text>
</g>
<!-- pirogue&#45;flow&#45;inspector&#45;&gt;python3&#45;geoip2 -->
<g id="edge73" class="edge">
<title>pirogue&#45;flow&#45;inspector&#45;&gt;python3&#45;geoip2</title>
<path fill="none" stroke="#912cee" d="M351.85,-726.09C415.95,-727.65 502.59,-729.75 563.32,-731.23"/>
<polygon fill="#912cee" stroke="#912cee" points="563.51,-734.73 573.59,-731.48 563.68,-727.74 563.51,-734.73"/>
<text text-anchor="middle" x="446.5" y="-732.8" font-family="courrier" font-size="14.00">(&gt;= 4.5.0)</text>
</g>
<!-- pirogue&#45;maintenance&#45;&gt;suricata -->
<g id="edge77" class="edge">
<title>pirogue&#45;maintenance&#45;&gt;suricata</title>
<path fill="none" stroke="#912cee" d="M347.23,-633.83C422.07,-621.7 530.39,-604.14 590.91,-594.33"/>
<polygon fill="#912cee" stroke="#912cee" points="591.6,-597.77 600.91,-592.71 590.48,-590.86 591.6,-597.77"/>
</g>
<!-- pirogue&#45;screen&#45;st7789&#45;240x240&#45;&gt;python3:any -->
<g id="edge79" class="edge">
<title>pirogue&#45;screen&#45;st7789&#45;240x240&#45;&gt;python3:any</title>
<path fill="none" stroke="#912cee" d="M386.27,-302.79C419.6,-305.47 455.76,-308.86 489,-313 520.12,-316.88 740.96,-342.97 767.29,-360 853.73,-415.91 906.79,-532.94 927.42,-586.36"/>
<polygon fill="#912cee" stroke="#912cee" points="924.2,-587.74 931,-595.86 930.75,-585.27 924.2,-587.74"/>
</g>
<!-- pirogue&#45;screen&#45;st7789&#45;240x240&#45;&gt;python3&#45;systemd -->
<g id="edge87" class="edge">
<title>pirogue&#45;screen&#45;st7789&#45;240x240&#45;&gt;python3&#45;systemd</title>
<path fill="none" stroke="#912cee" d="M386.04,-288.55C392.11,-288.33 398.12,-288.15 404,-288 455.02,-286.71 512.37,-286.69 557.3,-287.01"/>
<polygon fill="#912cee" stroke="#912cee" points="557.54,-290.51 567.57,-287.09 557.6,-283.51 557.54,-290.51"/>
</g>
<!-- pirogue&#45;screen&#45;st7789&#45;240x240&#45;&gt;pirogue&#45;hardware&#45;detection -->
<g id="edge88" class="edge">
<title>pirogue&#45;screen&#45;st7789&#45;240x240&#45;&gt;pirogue&#45;hardware&#45;detection</title>
<path fill="none" stroke="#912cee" d="M275.32,-313.3C295.67,-353.36 345.53,-451.86 386,-535 435.69,-637.09 415.71,-692.49 507,-760 512.08,-763.75 517.56,-767.01 523.3,-769.84"/>
<polygon fill="#912cee" stroke="#912cee" points="521.94,-773.07 532.5,-773.93 524.79,-766.67 521.94,-773.07"/>
</g>
<!-- pirogue&#45;screen&#45;st7789&#45;240x240&#45;&gt;influxdb -->
<g id="edge80" class="edge">
<title>pirogue&#45;screen&#45;st7789&#45;240x240&#45;&gt;influxdb</title>
<path fill="none" stroke="#912cee" d="M303.02,-313.03C354.34,-340.18 445.65,-396.71 489,-474 519.69,-528.72 464.41,-567.94 507,-614 527.78,-636.47 562.04,-642.84 590.05,-643.79"/>
<polygon fill="#912cee" stroke="#912cee" points="590.01,-647.29 600.05,-643.92 590.1,-640.29 590.01,-647.29"/>
</g>
<!-- pirogue&#45;screen&#45;st7789&#45;240x240&#45;&gt;python3&#45;influxdb -->
<g id="edge82" class="edge">
<title>pirogue&#45;screen&#45;st7789&#45;240x240&#45;&gt;python3&#45;influxdb</title>
<path fill="none" stroke="#912cee" d="M327.98,-313.05C393,-332.11 486.22,-359.84 489,-363 520.3,-398.52 474.13,-433.92 507,-468 520.54,-482.04 539.36,-489.73 558.45,-493.74"/>
<polygon fill="#912cee" stroke="#912cee" points="557.98,-497.21 568.44,-495.51 559.2,-490.31 557.98,-497.21"/>
</g>
<!-- pirogue&#45;screen&#45;st7789&#45;240x240&#45;&gt;python3&#45;numpy -->
<g id="edge84" class="edge">
<title>pirogue&#45;screen&#45;st7789&#45;240x240&#45;&gt;python3&#45;numpy</title>
<path fill="none" stroke="#912cee" d="M386.04,-312.47C434.39,-320.56 480.76,-330.1 489,-338 514.06,-362.02 482.13,-389.78 507,-414 521.95,-428.56 542.61,-436.17 563.03,-439.95"/>
<polygon fill="#912cee" stroke="#912cee" points="562.58,-443.42 573,-441.5 563.66,-436.5 562.58,-443.42"/>
</g>
<!-- net&#45;tools -->
<g id="node64" class="node">
<title>net&#45;tools</title>
<polygon fill="thistle" stroke="#912cee" points="675.65,-198 598.65,-198 598.65,-194 594.65,-194 594.65,-190 598.65,-190 598.65,-170 594.65,-170 594.65,-166 598.65,-166 598.65,-162 675.65,-162 675.65,-198"/>
<polyline fill="none" stroke="#912cee" points="598.65,-194 602.65,-194 602.65,-190 598.65,-190 "/>
<polyline fill="none" stroke="#912cee" points="598.65,-170 602.65,-170 602.65,-166 598.65,-166 "/>
<text text-anchor="middle" x="637.15" y="-176.3" font-family="courrier" font-size="14.00">net&#45;tools</text>
</g>
<!-- pirogue&#45;screen&#45;st7789&#45;240x240&#45;&gt;net&#45;tools -->
<g id="edge81" class="edge">
<title>pirogue&#45;screen&#45;st7789&#45;240x240&#45;&gt;net&#45;tools</title>
<path fill="none" stroke="#912cee" d="M309.79,-276.84C357.61,-257.53 436.76,-227.05 507,-207 533.6,-199.41 563.84,-192.97 588.36,-188.29"/>
<polygon fill="#912cee" stroke="#912cee" points="589.31,-191.67 598.5,-186.39 588.03,-184.79 589.31,-191.67"/>
</g>
<!-- python3&#45;libgpiod -->
<g id="node65" class="node">
<title>python3&#45;libgpiod</title>
<polygon fill="thistle" stroke="#912cee" points="704.65,-144 569.65,-144 569.65,-140 565.65,-140 565.65,-136 569.65,-136 569.65,-116 565.65,-116 565.65,-112 569.65,-112 569.65,-108 704.65,-108 704.65,-144"/>
<polyline fill="none" stroke="#912cee" points="569.65,-140 573.65,-140 573.65,-136 569.65,-136 "/>
<polyline fill="none" stroke="#912cee" points="569.65,-116 573.65,-116 573.65,-112 569.65,-112 "/>
<text text-anchor="middle" x="637.15" y="-122.3" font-family="courrier" font-size="14.00">python3&#45;libgpiod</text>
</g>
<!-- pirogue&#45;screen&#45;st7789&#45;240x240&#45;&gt;python3&#45;libgpiod -->
<g id="edge83" class="edge">
<title>pirogue&#45;screen&#45;st7789&#45;240x240&#45;&gt;python3&#45;libgpiod</title>
<path fill="none" stroke="#912cee" d="M289.84,-276.93C331.5,-246.31 421.3,-184.48 507,-153 523.54,-146.93 541.79,-142.06 559.24,-138.24"/>
<polygon fill="#912cee" stroke="#912cee" points="560.34,-141.58 569.4,-136.1 558.9,-134.73 560.34,-141.58"/>
</g>
<!-- python3&#45;pil -->
<g id="node66" class="node">
<title>python3&#45;pil</title>
<polygon fill="thistle" stroke="#912cee" points="685.15,-90 589.15,-90 589.15,-86 585.15,-86 585.15,-82 589.15,-82 589.15,-62 585.15,-62 585.15,-58 589.15,-58 589.15,-54 685.15,-54 685.15,-90"/>
<polyline fill="none" stroke="#912cee" points="589.15,-86 593.15,-86 593.15,-82 589.15,-82 "/>
<polyline fill="none" stroke="#912cee" points="589.15,-62 593.15,-62 593.15,-58 589.15,-58 "/>
<text text-anchor="middle" x="637.15" y="-68.3" font-family="courrier" font-size="14.00">python3&#45;pil</text>
</g>
<!-- pirogue&#45;screen&#45;st7789&#45;240x240&#45;&gt;python3&#45;pil -->
<g id="edge85" class="edge">
<title>pirogue&#45;screen&#45;st7789&#45;240x240&#45;&gt;python3&#45;pil</title>
<path fill="none" stroke="#912cee" d="M281.67,-276.61C305.99,-248.77 355.12,-195.23 404,-158 445.97,-126.03 457.68,-117.74 507,-99 529.94,-90.28 556.3,-84.13 579.2,-79.93"/>
<polygon fill="#912cee" stroke="#912cee" points="579.87,-83.36 589.12,-78.19 578.66,-76.47 579.87,-83.36"/>
</g>
<!-- python3&#45;spidev -->
<g id="node67" class="node">
<title>python3&#45;spidev</title>
<polygon fill="thistle" stroke="#912cee" points="699.65,-36 574.65,-36 574.65,-32 570.65,-32 570.65,-28 574.65,-28 574.65,-8 570.65,-8 570.65,-4 574.65,-4 574.65,0 699.65,0 699.65,-36"/>
<polyline fill="none" stroke="#912cee" points="574.65,-32 578.65,-32 578.65,-28 574.65,-28 "/>
<polyline fill="none" stroke="#912cee" points="574.65,-8 578.65,-8 578.65,-4 574.65,-4 "/>
<text text-anchor="middle" x="637.15" y="-14.3" font-family="courrier" font-size="14.00">python3&#45;spidev</text>
</g>
<!-- pirogue&#45;screen&#45;st7789&#45;240x240&#45;&gt;python3&#45;spidev -->
<g id="edge86" class="edge">
<title>pirogue&#45;screen&#45;st7789&#45;240x240&#45;&gt;python3&#45;spidev</title>
<path fill="none" stroke="#912cee" d="M275.46,-276.87C295.26,-240.28 344.21,-156.53 404,-103 443.14,-67.96 457.82,-63.48 507,-45 525.26,-38.14 545.66,-32.85 564.76,-28.86"/>
<polygon fill="#912cee" stroke="#912cee" points="565.49,-32.28 574.61,-26.88 564.12,-25.42 565.49,-32.28"/>
</g>
<!-- pirogue&#45;screen -->
<g id="node68" class="node">
<title>pirogue&#45;screen</title>
<polygon fill="thistle" stroke="#912cee" points="721.48,-226.54 721.48,-241.46 672.08,-252 602.21,-252 552.81,-241.46 552.81,-226.54 602.21,-216 672.08,-216 721.48,-226.54"/>
<text text-anchor="middle" x="637.15" y="-230.3" font-family="courrier" font-size="14.00">pirogue&#45;screen</text>
</g>
<!-- pirogue&#45;screen&#45;st7789&#45;240x240&#45;&gt;pirogue&#45;screen -->
<g id="edge89" class="edge">
<title>pirogue&#45;screen&#45;st7789&#45;240x240&#45;&gt;pirogue&#45;screen</title>
<path fill="none" stroke="red" d="M341.8,-276.94C400.3,-265.86 481.5,-252.35 543.8,-243.29"/>
<polygon fill="red" stroke="red" points="544.62,-246.7 554.02,-241.81 543.62,-239.78 544.62,-246.7"/>
</g>
<!-- pirogue&#45;screen&#45;&gt;pirogue&#45;screen&#45;st7789&#45;240x240 -->
<g id="edge91" class="edge">
<title>pirogue&#45;screen&#45;&gt;pirogue&#45;screen&#45;st7789&#45;240x240</title>
<path fill="none" stroke="green" d="M572.25,-249.78C521.17,-259.7 448.12,-272.11 386.18,-281.56"/>
<polygon fill="green" stroke="green" points="582.83,-251.27 572.35,-249.76 581.48,-244.4 582.83,-251.27"/>
</g>
</g>
</svg>
